<svg width="128" height="39" viewBox="0 0 128 39" fill="none" xmlns="http://www.w3.org/2000/svg">
<g clip-path="url(#clip0_405_1197)">
<path d="M9.55787 0C7.02297 0 4.59188 1.00699 2.79944 2.79944C1.00699 4.59188 0 7.02297 0 9.55787L0 28.6736C0 31.2085 1.00699 33.6396 2.79944 35.432C4.59188 37.2245 7.02297 38.2315 9.55787 38.2315H28.6736C31.2085 38.2315 33.6396 37.2245 35.432 35.432C37.2245 33.6396 38.2315 31.2085 38.2315 28.6736V0H9.55787Z" fill="#B1EC52"/>
<path d="M31.5931 14.333H27.0044L22.6331 19.1158V9.55797H19.0926V11.8873C18.9787 11.7372 18.8545 11.5896 18.7199 11.4447C17.9954 10.733 17.1299 10.1808 16.1791 9.82377C15.2284 9.46673 14.2134 9.31271 13.1995 9.37163C12.2262 9.32681 11.2558 9.50902 10.3651 9.90385C9.47435 10.2987 8.68768 10.8953 8.06726 11.6466C7.5652 12.2611 7.20132 12.9765 7.00035 13.7442C6.79939 14.5119 6.76606 15.3138 6.90262 16.0955C7.72563 19.7758 11.1419 20.3659 13.6498 20.692C15.6297 20.9482 17.532 21.3131 17.4776 23.0756C17.4233 24.8381 15.358 25.3428 13.9759 25.3428C10.4431 25.3428 10.3267 22.734 10.3267 22.734H6.55322C6.61844 24.1661 7.16566 25.5342 8.10609 26.6162C9.42602 28.0992 11.4059 28.8445 13.9914 28.8445C15.851 28.8866 17.662 28.2489 19.0848 27.051V28.6038H22.6254V24.1394L23.8832 22.7728L27.4625 28.6504H31.5854L26.3988 20.0398L31.5931 14.333ZM10.4509 15.2647C10.1403 13.8982 11.4991 12.687 13.2694 12.687C14.8222 12.687 16.445 13.0441 17.0506 15.2647H19.0926V18.6345C16.5537 16.5536 11.041 17.858 10.4509 15.2647Z" fill="#050505"/>
<path d="M47.4322 25.7153C47.7576 26.0358 48.1496 26.2806 48.5804 26.4322C49.0112 26.5839 49.4702 26.6387 49.9245 26.5927C50.5111 26.6093 51.0963 26.528 51.656 26.352C52.0217 26.259 52.3451 26.0449 52.5736 25.7446C52.802 25.4443 52.9219 25.0754 52.9138 24.6982C52.921 24.4761 52.8677 24.2562 52.7597 24.062C52.6517 23.8678 52.4929 23.7066 52.3004 23.5956C51.6785 23.2714 51.0109 23.0436 50.3205 22.9201L48.7677 22.5785C47.6779 22.3921 46.6277 22.0219 45.6619 21.4837C45.1767 21.1314 44.7889 20.6616 44.535 20.1183C44.281 19.5751 44.1692 18.9763 44.21 18.378C44.1971 17.7716 44.3169 17.1697 44.561 16.6145C44.805 16.0592 45.1676 15.564 45.6231 15.1636C46.7837 14.2383 48.25 13.7837 49.7304 13.8902C51.1219 13.8424 52.4891 14.2635 53.6126 15.0859C54.1631 15.4956 54.6066 16.0321 54.9053 16.6499C55.204 17.2676 55.3492 17.9484 55.3285 18.6342H52.4557C52.4554 18.2507 52.3494 17.8746 52.1495 17.5472C51.9495 17.2199 51.6633 16.954 51.3221 16.7786C50.779 16.5229 50.1828 16.4004 49.5829 16.4214C48.9307 16.3876 48.2835 16.5527 47.7272 16.895C47.5083 17.0314 47.3291 17.223 47.2078 17.4506C47.0864 17.6783 47.0273 17.9339 47.0362 18.1917C47.0279 18.4305 47.0887 18.6667 47.2112 18.8719C47.3338 19.0771 47.513 19.2426 47.7272 19.3486C48.3221 19.6151 48.9444 19.8156 49.5829 19.9464L52.0597 20.5287C52.9424 20.7053 53.7782 21.065 54.5133 21.5847C54.9451 21.9352 55.2873 22.3835 55.5114 22.8925C55.7355 23.4015 55.8352 23.9566 55.8021 24.5118C55.8119 25.1215 55.6868 25.7258 55.4358 26.2815C55.1848 26.8371 54.8141 27.3305 54.3502 27.7262C53.1343 28.6696 51.6156 29.1362 50.0798 29.0384C48.5071 29.1241 46.9527 28.6663 45.6775 27.7418C45.1491 27.3296 44.7278 26.7961 44.4494 26.1866C44.171 25.577 44.0436 24.9093 44.078 24.2401H46.8965C46.9416 24.7705 47.1264 25.2795 47.4322 25.7153Z" fill="white"/>
<path d="M63.4654 18.0989H66.8895L63.1859 22.1596L67.068 28.6661H63.6673L61.1361 24.1162L59.9792 25.3352V28.6661H57.2617V14.3643H59.9948V22.082L63.4654 18.0989Z" fill="white"/>
<path d="M72.6506 29.0386C71.8896 29.0936 71.1262 28.9715 70.4203 28.6818C69.7144 28.3922 69.0852 27.9429 68.5821 27.3693C67.6764 26.2393 67.1981 24.8262 67.2311 23.3784C67.2082 21.9393 67.6857 20.5369 68.5821 19.4109C69.0833 18.8344 69.7119 18.3826 70.4181 18.0915C71.1244 17.8004 71.8887 17.6779 72.6506 17.7338C73.4162 17.6748 74.1849 17.7958 74.8954 18.087C75.6059 18.3782 76.2384 18.8316 76.7424 19.4109C77.6366 20.5432 78.1088 21.9514 78.0778 23.394C78.1159 24.8399 77.643 26.253 76.7424 27.3848C76.2353 27.9589 75.6017 28.4072 74.8915 28.6943C74.1814 28.9813 73.4142 29.0992 72.6506 29.0386ZM75.1662 23.3784C75.2308 22.5089 75.01 21.642 74.5373 20.9094C74.3077 20.6393 74.0221 20.4223 73.7004 20.2736C73.3786 20.1248 73.0284 20.0477 72.6739 20.0477C72.3194 20.0477 71.9691 20.1248 71.6474 20.2736C71.3256 20.4223 71.04 20.6393 70.8104 20.9094C70.3268 21.6383 70.095 22.5054 70.1505 23.3784C70.0926 24.2468 70.3248 25.1098 70.8104 25.8319C71.037 26.1068 71.3215 26.3282 71.6437 26.4802C71.9659 26.6321 72.3177 26.7109 72.6739 26.7109C73.0301 26.7109 73.3819 26.6321 73.7041 26.4802C74.0262 26.3282 74.3108 26.1068 74.5373 25.8319C75.0121 25.106 75.2332 24.2433 75.1662 23.3784Z" fill="white"/>
<path d="M82.4027 14.3096V28.6658H79.6309V14.3096H82.4027Z" fill="white"/>
<path d="M90.7726 18.0989H94.2044L90.5008 22.1596L94.383 28.6661H90.9977L88.4666 24.1162L87.3097 25.3352V28.6661H84.5767V14.3643H87.3097V22.082L90.7726 18.0989Z" fill="white"/>
<path d="M99.9655 29.0386C99.2045 29.0936 98.4411 28.9715 97.7352 28.6819C97.0293 28.3922 96.4001 27.943 95.897 27.3693C94.9914 26.2393 94.513 24.8262 94.546 23.3785C94.5231 21.9394 95.0006 20.5369 95.897 19.4109C96.9823 18.3407 98.4452 17.7407 99.9694 17.7407C101.494 17.7407 102.957 18.3407 104.042 19.4109C104.936 20.5432 105.408 21.9515 105.377 23.394C105.412 24.8346 104.939 26.2416 104.042 27.3693C103.538 27.9441 102.907 28.394 102.2 28.6837C101.493 28.9733 100.728 29.0949 99.9655 29.0386ZM102.489 23.3785C102.544 22.5055 102.313 21.6383 101.829 20.9094C101.599 20.6393 101.314 20.4224 100.992 20.2736C100.67 20.1248 100.32 20.0477 99.9655 20.0477C99.611 20.0477 99.2608 20.1248 98.939 20.2736C98.6173 20.4224 98.3317 20.6393 98.1021 20.9094C97.6185 21.6383 97.3867 22.5055 97.4421 23.3785C97.3843 24.2468 97.6164 25.1098 98.1021 25.832C98.3286 26.1069 98.6132 26.3282 98.9354 26.4802C99.2575 26.6322 99.6093 26.711 99.9655 26.711C100.322 26.711 100.674 26.6322 100.996 26.4802C101.318 26.3282 101.602 26.1069 101.829 25.832C102.315 25.1098 102.547 24.2468 102.489 23.3785Z" fill="white"/>
<path d="M109.655 28.6661L105.851 18.0522H108.957L111.169 25.8709L113.429 18.0522H116.395L112.582 28.6661H109.655Z" fill="white"/>
<path d="M122.241 29.0388C121.48 29.0956 120.716 28.9743 120.01 28.6846C119.304 28.3948 118.675 27.9445 118.173 27.3695C117.262 26.2422 116.78 24.8279 116.814 23.3786C116.788 21.9376 117.269 20.5332 118.173 19.411C119.258 18.3366 120.723 17.7339 122.249 17.7339C123.776 17.7339 125.241 18.3366 126.325 19.411C127.226 20.5398 127.699 21.9505 127.661 23.3941C127.703 24.8407 127.23 26.2551 126.325 27.385C125.819 27.958 125.187 28.4057 124.478 28.6927C123.769 28.9796 123.004 29.0981 122.241 29.0388ZM124.749 23.3786C124.805 22.5056 124.573 21.6385 124.089 20.9096C123.872 20.6292 123.591 20.4048 123.27 20.2549C122.948 20.105 122.596 20.034 122.241 20.0477C121.88 20.029 121.519 20.0975 121.189 20.2475C120.859 20.3975 120.571 20.6246 120.347 20.9096C119.867 21.6401 119.636 22.506 119.687 23.3786C119.633 24.2466 119.865 25.1085 120.347 25.8321C120.566 26.1197 120.851 26.3499 121.178 26.5027C121.505 26.6555 121.865 26.7265 122.226 26.7095C122.582 26.7241 122.936 26.6518 123.258 26.499C123.58 26.3461 123.86 26.1173 124.074 25.8321C124.565 25.1119 124.803 24.2487 124.749 23.3786Z" fill="white"/>
</g>
<defs>
<clipPath id="clip0_405_1197">
<rect width="127.661" height="38.2315" fill="white"/>
</clipPath>
</defs>
</svg>
