<svg width="430" height="334" viewBox="0 0 430 334" fill="none" xmlns="http://www.w3.org/2000/svg">
<path d="M412.372 142.425L415.926 153.426L415.997 153.644L416.207 153.733L427.833 158.667L415.506 161.415L415.283 161.464L415.175 161.665L409.687 171.841L406.133 160.84L406.063 160.623L405.852 160.534L394.226 155.6L406.553 152.852L406.776 152.802L406.885 152.601L412.372 142.425Z" stroke="white"/>
<path d="M213.68 110.731L215.959 117.783L216.029 118L216.239 118.089L223.607 121.216L215.795 122.957L215.572 123.007L215.464 123.208L211.946 129.731L209.668 122.679L209.598 122.462L209.388 122.373L202.019 119.246L209.832 117.504L210.055 117.455L210.163 117.254L213.68 110.731Z" stroke="white"/>
<mask id="path-3-inside-1_243_129" fill="white">
<path fill-rule="evenodd" clip-rule="evenodd" d="M341.702 30.3065C342.459 28.3899 343.338 26.6398 344.268 25.1366C342.671 24.8042 340.961 24.3049 339.219 23.6393C332.379 21.0267 327.623 16.8412 328.598 14.2907C329.572 11.7402 335.906 11.7905 342.746 14.4031C344.352 15.0165 345.843 15.7166 347.172 16.4619C347.501 15.2076 347.927 13.8993 348.451 12.5729C351.139 5.76258 355.378 1.0545 357.917 2.05713C360.457 3.05977 360.336 9.39346 357.647 16.2038C356.926 18.0291 356.094 19.7033 355.213 21.1571C356.715 21.5029 358.31 21.9954 359.932 22.6333C366.746 25.3132 371.46 29.5454 370.461 32.0862C369.461 34.627 363.127 34.5142 356.314 31.8343C354.836 31.2531 353.457 30.5988 352.213 29.9047C351.88 31.2027 351.442 32.5603 350.898 33.9374C348.209 40.7478 343.971 45.4558 341.431 44.4532C338.892 43.4506 339.013 37.1169 341.702 30.3065Z"/>
</mask>
<path d="M344.268 25.1366L345.118 25.6626L345.869 24.4485L344.472 24.1575L344.268 25.1366ZM341.702 30.3065L340.772 29.9393L341.702 30.3065ZM339.219 23.6393L339.575 22.7051L339.219 23.6393ZM342.746 14.4031L342.39 15.3373L342.39 15.3373L342.746 14.4031ZM347.172 16.4619L346.683 17.3341L347.812 17.9673L348.14 16.715L347.172 16.4619ZM348.451 12.5729L349.381 12.9402L348.451 12.5729ZM357.647 16.2038L358.577 16.5711L357.647 16.2038ZM355.213 21.1571L354.358 20.6389L353.642 21.8214L354.989 22.1316L355.213 21.1571ZM359.932 22.6333L360.298 21.7027L359.932 22.6333ZM370.461 32.0862L369.53 31.7202L370.461 32.0862ZM356.314 31.8343L355.947 32.7649L356.314 31.8343ZM352.213 29.9047L352.701 29.0316L351.567 28.3987L351.245 29.6562L352.213 29.9047ZM350.898 33.9374L351.828 34.3046L350.898 33.9374ZM343.417 24.6105C342.454 26.1676 341.549 27.9713 340.772 29.9393L342.632 30.6738C343.368 28.8085 344.222 27.1119 345.118 25.6626L343.417 24.6105ZM338.862 24.5735C340.651 25.257 342.412 25.7718 344.064 26.1156L344.472 24.1575C342.93 23.8366 341.271 23.3528 339.575 22.7051L338.862 24.5735ZM327.663 13.9339C327.28 14.9367 327.507 15.9881 327.999 16.9248C328.492 17.8633 329.304 18.8005 330.317 19.6924C332.35 21.4815 335.36 23.2359 338.862 24.5735L339.575 22.7051C336.237 21.4301 333.45 19.7855 331.639 18.1911C330.73 17.3912 330.108 16.6405 329.77 15.9952C329.43 15.3482 329.428 14.9199 329.532 14.6475L327.663 13.9339ZM343.103 13.4689C339.601 12.1314 336.188 11.4323 333.48 11.4108C332.13 11.4 330.9 11.5571 329.907 11.9282C328.916 12.2986 328.047 12.931 327.663 13.9339L329.532 14.6475C329.636 14.3751 329.923 14.0574 330.608 13.8016C331.29 13.5464 332.254 13.4011 333.464 13.4107C335.878 13.4299 339.052 14.0622 342.39 15.3373L343.103 13.4689ZM347.662 15.5897C346.288 14.8195 344.753 14.0989 343.103 13.4689L342.39 15.3373C343.952 15.9341 345.399 16.6138 346.683 17.3341L347.662 15.5897ZM347.52 12.2057C346.982 13.5682 346.544 14.9145 346.205 16.2088L348.14 16.715C348.458 15.5006 348.871 14.2304 349.381 12.9402L347.52 12.2057ZM358.285 1.12701C357.286 0.732777 356.232 0.94776 355.29 1.42897C354.346 1.9111 353.4 2.71286 352.497 3.7161C350.685 5.72857 348.897 8.71903 347.52 12.2057L349.381 12.9402C350.693 9.6165 352.369 6.84774 353.983 5.05423C354.793 4.15449 355.551 3.54157 356.2 3.2101C356.851 2.87771 357.279 2.88017 357.55 2.98726L358.285 1.12701ZM358.577 16.5711C359.953 13.0844 360.691 9.67903 360.742 6.9717C360.768 5.62206 360.625 4.39018 360.265 3.39321C359.906 2.39815 359.283 1.52124 358.285 1.12701L357.55 2.98726C357.821 3.09435 358.136 3.38513 358.384 4.07246C358.631 4.75787 358.766 5.72305 358.743 6.93346C358.697 9.34622 358.029 12.5129 356.717 15.8366L358.577 16.5711ZM356.069 21.6752C356.98 20.1704 357.837 18.4454 358.577 16.5711L356.717 15.8366C356.015 17.6128 355.208 19.2362 354.358 20.6389L356.069 21.6752ZM354.989 22.1316C356.441 22.4658 357.988 22.9432 359.566 23.5639L360.298 21.7027C358.632 21.0475 356.99 20.54 355.438 20.1826L354.989 22.1316ZM359.566 23.5639C362.892 24.8718 365.663 26.5438 367.458 28.156C368.359 28.9648 368.973 29.7216 369.305 30.3702C369.639 31.0205 369.637 31.4488 369.53 31.7202L371.391 32.4522C371.784 31.4532 371.568 30.3996 371.085 29.4581C370.602 28.5148 369.799 27.5697 368.794 26.6678C366.78 24.8588 363.787 23.0747 360.298 21.7027L359.566 23.5639ZM369.53 31.7202C369.423 31.9915 369.133 32.3064 368.446 32.5555C367.761 32.8039 366.796 32.9397 365.585 32.9181C363.172 32.8752 360.005 32.2115 356.68 30.9037L355.947 32.7649C359.436 34.1369 362.842 34.8696 365.55 34.9178C366.899 34.9419 368.131 34.797 369.128 34.4357C370.122 34.0751 370.998 33.4512 371.391 32.4522L369.53 31.7202ZM356.68 30.9037C355.242 30.3382 353.904 29.703 352.701 29.0316L351.726 30.7779C353.01 31.4947 354.43 32.1679 355.947 32.7649L356.68 30.9037ZM351.828 34.3046C352.387 32.8901 352.838 31.4929 353.182 30.1532L351.245 29.6562C350.923 30.9125 350.497 32.2305 349.968 33.5702L351.828 34.3046ZM341.064 45.3833C342.063 45.7776 343.116 45.5626 344.058 45.0814C345.002 44.5992 345.949 43.7975 346.852 42.7942C348.664 40.7818 350.452 37.7913 351.828 34.3046L349.968 33.5702C348.656 36.8938 346.98 39.6626 345.365 41.4561C344.555 42.3559 343.798 42.9688 343.149 43.3002C342.498 43.6326 342.07 43.6302 341.798 43.5231L341.064 45.3833ZM340.772 29.9393C339.395 33.426 338.658 36.8313 338.606 39.5386C338.58 40.8883 338.724 42.1202 339.084 43.1171C339.443 44.1122 340.066 44.9891 341.064 45.3833L341.798 43.5231C341.527 43.416 341.213 43.1252 340.965 42.4379C340.717 41.7525 340.583 40.7873 340.606 39.5769C340.652 37.1641 341.32 33.9974 342.632 30.6738L340.772 29.9393Z" fill="white" mask="url(#path-3-inside-1_243_129)"/>
<mask id="path-5-inside-2_243_129" fill="white">
<path fill-rule="evenodd" clip-rule="evenodd" d="M14.471 319.731C15.0625 318.233 15.7498 316.865 16.4765 315.69C15.2285 315.43 13.892 315.04 12.53 314.52C7.18393 312.478 3.46734 309.207 4.22875 307.213C4.99016 305.22 9.94124 305.259 15.2873 307.301C16.5426 307.781 17.708 308.328 18.7467 308.91C19.0032 307.93 19.3364 306.907 19.7457 305.871C21.8473 300.548 25.16 296.868 27.1448 297.652C29.1297 298.435 29.035 303.385 26.9334 308.708C26.3701 310.135 25.7198 311.444 25.0314 312.58C26.2054 312.85 27.4519 313.235 28.7196 313.734C34.0452 315.828 37.7294 319.136 36.9484 321.122C36.1673 323.108 31.2169 323.02 25.8912 320.925C24.7362 320.471 23.6585 319.96 22.6867 319.417C22.4265 320.431 22.0836 321.493 21.6586 322.569C19.557 327.892 16.2443 331.571 14.2595 330.788C12.2747 330.004 12.3694 325.054 14.471 319.731Z"/>
</mask>
<path d="M16.4765 315.69L17.327 316.216L18.0779 315.002L16.6803 314.711L16.4765 315.69ZM14.471 319.731L15.4011 320.098L14.471 319.731ZM12.53 314.52L12.1732 315.454L12.53 314.52ZM4.22875 307.213L3.29457 306.856L4.22875 307.213ZM15.2873 307.301L15.6441 306.367L15.2873 307.301ZM18.7467 308.91L18.2575 309.782L19.3865 310.416L19.7141 309.163L18.7467 308.91ZM19.7457 305.871L20.6759 306.238L19.7457 305.871ZM27.1448 297.652L26.7776 298.582L27.1448 297.652ZM26.9334 308.708L26.0032 308.341L26.0032 308.341L26.9334 308.708ZM25.0314 312.58L24.1761 312.062L23.4598 313.244L24.807 313.554L25.0314 312.58ZM28.7196 313.734L28.3536 314.664L28.7196 313.734ZM25.8912 320.925L25.5252 321.856L25.8912 320.925ZM22.6867 319.417L23.1742 318.544L22.0406 317.911L21.7181 319.169L22.6867 319.417ZM21.6586 322.569L22.5888 322.936L21.6586 322.569ZM14.2595 330.788L13.8923 331.718L13.8923 331.718L14.2595 330.788ZM15.626 315.164C14.866 316.393 14.1526 317.814 13.5409 319.364L15.4011 320.098C15.9723 318.652 16.6336 317.337 17.327 316.216L15.626 315.164ZM12.1732 315.454C13.5822 315.992 14.9697 316.398 16.2727 316.669L16.6803 314.711C15.4872 314.463 14.2019 314.088 12.8868 313.586L12.1732 315.454ZM3.29457 306.856C2.96473 307.72 3.16646 308.61 3.56738 309.374C3.96925 310.139 4.62497 310.892 5.42835 311.599C7.04116 313.019 9.41829 314.402 12.1732 315.454L12.8868 313.586C10.2956 312.596 8.14143 311.323 6.74978 310.098C6.05093 309.483 5.58615 308.916 5.33823 308.444C5.08938 307.97 5.11207 307.703 5.16292 307.57L3.29457 306.856ZM15.6441 306.367C12.8892 305.315 10.1952 304.761 8.04673 304.744C6.9765 304.735 5.98587 304.859 5.17596 305.162C4.36796 305.464 3.62442 305.993 3.29457 306.856L5.16292 307.57C5.21378 307.437 5.37466 307.223 5.87619 307.036C6.37583 306.849 7.09987 306.736 8.03084 306.744C9.88474 306.759 12.3393 307.246 14.9305 308.235L15.6441 306.367ZM19.2358 308.038C18.1527 307.431 16.9428 306.863 15.6441 306.367L14.9305 308.235C16.1423 308.698 17.2633 309.225 18.2575 309.782L19.2358 308.038ZM18.8156 305.503C18.392 306.576 18.0462 307.637 17.7793 308.657L19.7141 309.163C19.9602 308.223 20.2808 307.238 20.6759 306.238L18.8156 305.503ZM27.5121 296.721C26.6522 296.382 25.7603 296.574 24.9921 296.966C24.2221 297.359 23.462 298.007 22.7459 298.802C21.3083 300.399 19.8986 302.76 18.8156 305.503L20.6759 306.238C21.6945 303.658 22.9919 301.518 24.2323 300.14C24.8552 299.448 25.4268 298.99 25.9018 298.747C26.3786 298.504 26.645 298.529 26.7776 298.582L27.5121 296.721ZM27.8635 309.076C28.9465 306.333 29.5302 303.645 29.5713 301.497C29.5918 300.427 29.4789 299.435 29.1852 298.622C28.8923 297.81 28.3719 297.061 27.5121 296.721L26.7776 298.582C26.9102 298.634 27.1223 298.797 27.3041 299.301C27.4853 299.803 27.5895 300.528 27.5717 301.459C27.5362 303.312 27.0219 305.761 26.0032 308.341L27.8635 309.076ZM25.8867 313.098C26.606 311.911 27.2808 310.551 27.8635 309.076L26.0032 308.341C25.4593 309.719 24.8336 310.977 24.1761 312.062L25.8867 313.098ZM24.807 313.554C25.9306 313.813 27.1297 314.183 28.3536 314.664L29.0856 312.803C27.774 312.287 26.4803 311.887 25.2558 311.605L24.807 313.554ZM28.3536 314.664C30.9349 315.68 33.0764 316.974 34.4559 318.213C35.1486 318.835 35.6078 319.406 35.8511 319.88C36.0952 320.357 36.0699 320.623 36.0177 320.756L37.879 321.488C38.2173 320.628 38.0244 319.736 37.631 318.968C37.2367 318.199 36.5884 317.44 35.7921 316.725C34.1933 315.289 31.83 313.882 29.0856 312.803L28.3536 314.664ZM36.0177 320.756C35.9656 320.889 35.8026 321.101 35.2992 321.283C34.7978 321.465 34.0727 321.57 33.1418 321.554C31.2882 321.521 28.8385 321.01 26.2572 319.995L25.5252 321.856C28.2696 322.935 30.958 323.515 33.1062 323.554C34.1763 323.573 35.1681 323.458 35.981 323.164C36.7919 322.87 37.5406 322.348 37.879 321.488L36.0177 320.756ZM26.2572 319.995C25.1423 319.556 24.1053 319.064 23.1742 318.544L22.1992 320.29C23.2117 320.855 24.3301 321.386 25.5252 321.856L26.2572 319.995ZM22.5888 322.936C23.0285 321.822 23.3844 320.722 23.6553 319.666L21.7181 319.169C21.4685 320.141 21.1387 321.163 20.7285 322.202L22.5888 322.936ZM13.8923 331.718C14.7521 332.057 15.6441 331.866 16.4123 331.473C17.1823 331.08 17.9424 330.433 18.6585 329.637C20.096 328.04 21.5058 325.679 22.5888 322.936L20.7285 322.202C19.7099 324.781 18.4125 326.921 17.1721 328.299C16.5492 328.991 15.9776 329.45 15.5026 329.692C15.0258 329.936 14.7593 329.91 14.6268 329.858L13.8923 331.718ZM13.5409 319.364C12.4579 322.107 11.8741 324.794 11.8331 326.942C11.8126 328.013 11.9255 329.004 12.2191 329.818C12.5121 330.629 13.0325 331.378 13.8923 331.718L14.6268 329.858C14.4942 329.805 14.2821 329.642 14.1003 329.138C13.9191 328.637 13.8149 327.912 13.8327 326.981C13.8681 325.127 14.3825 322.678 15.4011 320.098L13.5409 319.364Z" fill="white" mask="url(#path-5-inside-2_243_129)"/>
</svg>
