<svg width="1115" height="1141" viewBox="0 0 1115 1141" fill="none" xmlns="http://www.w3.org/2000/svg">
<path d="M683.712 202.173L690.111 221.977L690.182 222.194L690.392 222.284L711.508 231.245L689.118 236.236L688.896 236.286L688.787 236.487L678.909 254.805L672.51 235.001L672.44 234.784L672.23 234.695L651.113 225.733L673.503 220.742L673.726 220.693L673.834 220.492L683.712 202.173Z" stroke="white"/>
<path d="M394.337 136.226L398.532 149.211L398.602 149.428L398.813 149.517L412.577 155.359L397.983 158.612L397.76 158.662L397.651 158.863L391.174 170.874L386.979 157.889L386.909 157.671L386.699 157.582L372.934 151.741L387.529 148.487L387.751 148.438L387.86 148.237L394.337 136.226Z" stroke="white"/>
<mask id="path-3-inside-1_211_115" fill="white">
<path fill-rule="evenodd" clip-rule="evenodd" d="M531.34 51.5667C532.646 48.2574 534.165 45.2356 535.77 42.6402C533.013 42.0663 530.061 41.2042 527.052 40.055C515.242 35.544 507.032 28.3173 508.714 23.9135C510.396 19.5098 521.333 19.5967 533.143 24.1076C535.916 25.1667 538.491 26.3755 540.785 27.6624C541.352 25.4966 542.088 23.2377 542.992 20.9476C547.635 9.1887 554.953 1.05963 559.337 2.7908C563.722 4.52197 563.513 15.4578 558.87 27.2167C557.626 30.3682 556.19 33.259 554.669 35.7691C557.262 36.3663 560.016 37.2166 562.817 38.318C574.582 42.9452 582.72 50.2526 580.995 54.6395C579.27 59.0265 568.333 58.8318 556.568 54.2046C554.017 53.2011 551.636 52.0715 549.489 50.873C548.914 53.1141 548.157 55.4582 547.218 57.8359C542.575 69.5948 535.257 77.7238 530.872 75.9927C526.488 74.2615 526.697 63.3256 531.34 51.5667Z"/>
</mask>
<path d="M535.77 42.6402L536.621 43.1662L537.372 41.9521L535.974 41.6612L535.77 42.6402ZM531.34 51.5667L530.41 51.1995L531.34 51.5667ZM527.052 40.055L526.695 40.9892L527.052 40.055ZM533.143 24.1076L533.5 23.1734L533.143 24.1076ZM540.785 27.6624L540.296 28.5346L541.425 29.1677L541.753 27.9155L540.785 27.6624ZM542.992 20.9476L542.062 20.5804L542.992 20.9476ZM559.337 2.7908L558.97 3.72093L558.97 3.72093L559.337 2.7908ZM558.87 27.2167L559.8 27.584L558.87 27.2167ZM554.669 35.7691L553.814 35.251L553.097 36.4335L554.444 36.7437L554.669 35.7691ZM562.817 38.318L563.183 37.3874L562.817 38.318ZM580.995 54.6395L580.064 54.2735L580.995 54.6395ZM556.568 54.2046L556.934 53.274L556.568 54.2046ZM549.489 50.873L549.977 49.9998L548.843 49.367L548.52 50.6245L549.489 50.873ZM547.218 57.8359L548.148 58.2031L547.218 57.8359ZM530.872 75.9927L531.24 75.0625L531.24 75.0625L530.872 75.9927ZM534.92 42.1142C533.281 44.7634 531.736 47.8388 530.41 51.1995L532.27 51.934C533.556 48.676 535.048 45.7078 536.621 43.1662L534.92 42.1142ZM526.695 40.9892C529.751 42.1564 532.754 43.0339 535.566 43.6192L535.974 41.6612C533.272 41.0988 530.371 40.2521 527.409 39.1208L526.695 40.9892ZM507.779 23.5567C507.219 25.0228 507.529 26.6118 508.323 28.1239C509.118 29.6378 510.451 31.1882 512.163 32.6947C515.592 35.7131 520.708 38.7024 526.695 40.9892L527.409 39.1208C521.586 36.8966 516.692 34.0171 513.484 31.1934C511.877 29.7789 510.735 28.4149 510.094 27.1943C509.452 25.9719 509.367 25.006 509.648 24.2703L507.779 23.5567ZM533.5 23.1734C527.513 20.8867 521.707 19.7039 517.138 19.6676C514.858 19.6495 512.831 19.9163 511.229 20.5149C509.63 21.1129 508.339 22.0905 507.779 23.5567L509.648 24.2703C509.929 23.5346 510.636 22.8717 511.93 22.3884C513.221 21.9057 514.982 21.6505 517.122 21.6675C521.396 21.7015 526.963 22.8176 532.786 25.0418L533.5 23.1734ZM541.274 26.7902C538.935 25.4784 536.316 24.2491 533.5 23.1734L532.786 25.0418C535.516 26.0843 538.046 27.2727 540.296 28.5346L541.274 26.7902ZM542.062 20.5804C541.143 22.9066 540.395 25.2036 539.818 27.4093L541.753 27.9155C542.309 25.7897 543.032 23.5689 543.922 21.3148L542.062 20.5804ZM559.705 1.86067C558.245 1.28431 556.653 1.5765 555.132 2.3533C553.609 3.13102 552.044 4.44674 550.518 6.14136C547.462 9.53657 544.415 14.6194 542.062 20.5804L543.922 21.3148C546.211 15.5169 549.145 10.6557 552.005 7.47948C553.437 5.88837 554.814 4.76148 556.041 4.13443C557.271 3.50645 558.238 3.4317 558.97 3.72093L559.705 1.86067ZM559.8 27.584C562.154 21.623 563.402 15.83 563.489 11.2625C563.533 8.98276 563.288 6.95266 562.708 5.34447C562.128 3.73819 561.165 2.43703 559.705 1.86067L558.97 3.72093C559.703 4.01015 560.358 4.72517 560.827 6.02371C561.295 7.32036 561.53 9.08375 561.489 11.2242C561.408 15.4972 560.229 21.0515 557.94 26.8495L559.8 27.584ZM555.524 36.2873C557.076 33.7262 558.537 30.7845 559.8 27.584L557.94 26.8495C556.715 29.9519 555.303 32.7919 553.814 35.251L555.524 36.2873ZM554.444 36.7437C556.988 37.3292 559.694 38.1644 562.451 39.2487L563.183 37.3874C560.338 36.2687 557.537 35.4034 554.893 34.7946L554.444 36.7437ZM562.451 39.2487C568.252 41.5302 573.117 44.4578 576.297 47.313C577.89 48.7432 579.018 50.1184 579.647 51.3453C580.277 52.574 580.353 53.5406 580.064 54.2735L581.926 55.0056C582.5 53.545 582.206 51.9531 581.427 50.4332C580.647 48.9116 579.329 47.3481 577.633 45.8248C574.234 42.7728 569.147 39.7331 563.183 37.3874L562.451 39.2487ZM580.064 54.2735C579.776 55.0065 579.062 55.6623 577.764 56.1329C576.468 56.6028 574.705 56.8406 572.564 56.8025C568.291 56.7264 562.735 55.5555 556.934 53.274L556.202 55.1352C562.166 57.4809 567.961 58.7209 572.529 58.8022C574.809 58.8428 576.838 58.596 578.446 58.0131C580.051 57.431 581.351 56.4661 581.926 55.0056L580.064 54.2735ZM556.934 53.274C554.423 52.2862 552.083 51.1757 549.977 49.9998L549.002 51.7461C551.189 52.9673 553.611 54.1159 556.202 55.1352L556.934 53.274ZM548.148 58.2031C549.102 55.7879 549.872 53.4043 550.458 51.1215L548.52 50.6245C547.956 52.8239 547.212 55.1284 546.288 57.4686L548.148 58.2031ZM530.505 76.9228C531.965 77.4991 533.557 77.2069 535.078 76.4302C536.601 75.6524 538.166 74.3367 539.692 72.6421C542.748 69.2469 545.795 64.164 548.148 58.2031L546.288 57.4686C543.999 63.2666 541.065 68.1277 538.205 71.304C536.773 72.8951 535.396 74.022 534.168 74.649C532.939 75.277 531.972 75.3517 531.24 75.0625L530.505 76.9228ZM530.41 51.1995C528.056 57.1604 526.808 62.9535 526.721 67.521C526.677 69.8007 526.922 71.8308 527.502 73.439C528.082 75.0453 529.045 76.3464 530.505 76.9228L531.24 75.0625C530.507 74.7733 529.852 74.0583 529.383 72.7597C528.915 71.4631 528.68 69.6997 528.721 67.5592C528.802 63.2863 529.981 57.7319 532.27 51.934L530.41 51.1995Z" fill="white" mask="url(#path-3-inside-1_211_115)"/>
<mask id="path-5-inside-2_211_115" fill="white">
<path fill-rule="evenodd" clip-rule="evenodd" d="M19.806 531.304C20.8272 528.718 22.0141 526.356 23.2688 524.327C21.114 523.879 18.8065 523.205 16.4548 522.307C7.22424 518.781 0.807105 513.133 2.12177 509.691C3.43644 506.249 11.9851 506.317 21.2157 509.842C23.3829 510.67 25.3951 511.615 27.1885 512.621C27.6314 510.928 28.2066 509.163 28.9134 507.373C32.542 498.182 38.2618 491.828 41.6888 493.181C45.1158 494.535 44.9523 503.082 41.3236 512.272C40.3511 514.736 39.2284 516.995 38.0399 518.957C40.067 519.424 42.2191 520.088 44.408 520.949C53.6034 524.566 59.9646 530.277 58.616 533.706C57.2675 537.135 48.7199 536.982 39.5245 533.366C37.5303 532.582 35.6693 531.699 33.9914 530.762C33.5421 532.514 32.9501 534.346 32.2163 536.204C28.5876 545.395 22.8679 551.748 19.4409 550.395C16.0139 549.042 16.1773 540.495 19.806 531.304Z"/>
</mask>
<path d="M23.2688 524.327L24.1193 524.853L24.8703 523.639L23.4726 523.348L23.2688 524.327ZM19.806 531.304L20.7361 531.671L19.806 531.304ZM16.4548 522.307L16.8117 521.373L16.4548 522.307ZM2.12177 509.691L3.05595 510.048L2.12177 509.691ZM21.2157 509.842L20.8589 510.777L21.2157 509.842ZM27.1885 512.621L26.6993 513.493L27.8282 514.126L28.1559 512.874L27.1885 512.621ZM28.9134 507.373L27.9832 507.005L28.9134 507.373ZM41.6888 493.181L41.3216 494.112L41.6888 493.181ZM41.3236 512.272L40.3935 511.905L41.3236 512.272ZM38.0399 518.957L37.1846 518.439L36.4682 519.621L37.8155 519.931L38.0399 518.957ZM44.408 520.949L44.774 520.019L44.408 520.949ZM58.616 533.706L59.5466 534.072L58.616 533.706ZM39.5245 533.366L39.8905 532.435L39.5245 533.366ZM33.9914 530.762L34.4789 529.889L33.3454 529.256L33.0228 530.513L33.9914 530.762ZM32.2163 536.204L33.1464 536.571L33.1464 536.571L32.2163 536.204ZM19.4409 550.395L19.8081 549.465L19.8081 549.465L19.4409 550.395ZM22.4183 523.801C21.1303 525.884 19.9174 528.299 18.8759 530.937L20.7361 531.671C21.7371 529.136 22.8978 526.828 24.1193 524.853L22.4183 523.801ZM16.098 523.241C18.4967 524.157 20.8553 524.846 23.065 525.306L23.4726 523.348C21.3727 522.911 19.1164 522.253 16.8117 521.373L16.098 523.241ZM1.1876 509.334C0.719435 510.56 0.986217 511.87 1.62321 513.083C2.26115 514.298 3.32396 515.53 4.67312 516.718C7.37747 519.098 11.4009 521.447 16.098 523.241L16.8117 521.373C12.2782 519.641 8.47775 517.402 5.99454 515.217C4.74993 514.121 3.87804 513.075 3.39406 512.153C2.90913 511.23 2.86678 510.543 3.05595 510.048L1.1876 509.334ZM21.5725 508.908C16.8753 507.114 12.3108 506.182 8.70819 506.154C6.9109 506.139 5.29732 506.349 4.01165 506.83C2.72788 507.31 1.65576 508.108 1.1876 509.334L3.05595 510.048C3.24512 509.552 3.73458 509.069 4.71188 508.703C5.68728 508.339 7.03427 508.141 8.6923 508.154C12.0003 508.18 16.3254 509.045 20.8589 510.777L21.5725 508.908ZM27.6776 511.749C25.8397 510.718 23.7832 509.753 21.5725 508.908L20.8589 510.777C22.9827 511.588 24.9504 512.512 26.6993 513.493L27.6776 511.749ZM27.9832 507.005C27.2623 508.831 26.6744 510.635 26.221 512.368L28.1559 512.874C28.5884 511.221 29.151 509.494 29.8435 507.74L27.9832 507.005ZM42.056 492.251C40.8357 491.77 39.5228 492.022 38.3023 492.645C37.08 493.269 35.836 494.318 34.6335 495.654C32.223 498.332 29.8297 502.329 27.9832 507.005L29.8435 507.74C31.6256 503.226 33.9066 499.451 36.1199 496.992C37.2293 495.76 38.2846 494.9 39.212 494.426C40.1412 493.952 40.8284 493.917 41.3216 494.112L42.056 492.251ZM42.2538 512.64C44.1003 507.963 45.083 503.409 45.1519 499.807C45.1863 498.01 44.9945 496.394 44.5284 495.103C44.0629 493.814 43.2764 492.733 42.056 492.251L41.3216 494.112C41.8147 494.306 42.2929 494.801 42.6472 495.782C43.0009 496.762 43.184 498.111 43.1523 499.769C43.089 503.076 42.1757 507.391 40.3935 511.905L42.2538 512.64ZM38.8951 519.475C40.1146 517.462 41.2619 515.152 42.2538 512.64L40.3935 511.905C39.4404 514.319 38.3422 516.528 37.1846 518.439L38.8951 519.475ZM37.8155 519.931C39.7921 520.387 41.897 521.036 44.042 521.88L44.774 520.019C42.5413 519.14 40.3418 518.461 38.2642 517.982L37.8155 519.931ZM44.042 521.88C48.5582 523.656 52.3364 525.932 54.7979 528.142C56.0317 529.25 56.8932 530.304 57.3681 531.231C57.8439 532.159 57.8794 532.846 57.6854 533.34L59.5466 534.072C60.0269 532.851 59.773 531.538 59.148 530.319C58.5221 529.097 57.4715 527.855 56.1341 526.654C53.4533 524.247 49.4533 521.859 44.774 520.019L44.042 521.88ZM57.6854 533.34C57.4914 533.833 56.9972 534.312 56.0163 534.668C55.0373 535.023 53.6885 535.208 52.0306 535.178C48.7231 535.119 44.4067 534.211 39.8905 532.435L39.1585 534.297C43.8378 536.137 48.3929 537.114 51.995 537.178C53.7921 537.21 55.4077 537.016 56.698 536.548C57.9865 536.081 59.0664 535.293 59.5466 534.072L57.6854 533.34ZM39.8905 532.435C37.9364 531.667 36.1162 530.803 34.4789 529.889L33.504 531.635C35.2225 532.595 37.1242 533.496 39.1585 534.297L39.8905 532.435ZM33.1464 536.571C33.895 534.675 34.5 532.804 34.9601 531.01L33.0228 530.513C32.5842 532.223 32.0051 534.016 31.2862 535.837L33.1464 536.571ZM19.0736 551.325C20.294 551.807 21.6068 551.555 22.8274 550.932C24.0497 550.307 25.2936 549.258 26.4962 547.923C28.9066 545.245 31.2999 541.248 33.1464 536.571L31.2862 535.837C29.504 540.351 27.2231 544.126 25.0098 546.584C23.9004 547.817 22.845 548.677 21.9177 549.151C20.9885 549.625 20.3012 549.66 19.8081 549.465L19.0736 551.325ZM18.8759 530.937C17.0294 535.614 16.0466 540.168 15.9777 543.77C15.9434 545.567 16.1352 547.182 16.6013 548.473C17.0668 549.763 17.8533 550.843 19.0736 551.325L19.8081 549.465C19.315 549.27 18.8368 548.776 18.4824 547.794C18.1288 546.815 17.9457 545.466 17.9774 543.808C18.0406 540.5 18.954 536.185 20.7361 531.671L18.8759 530.937Z" fill="white" mask="url(#path-5-inside-2_211_115)"/>
<path fill-rule="evenodd" clip-rule="evenodd" d="M1067.31 754.195C1068.86 751.746 1070.53 749.559 1072.21 747.727C1070.09 746.848 1067.86 745.709 1065.63 744.332C1056.87 738.925 1051.4 731.893 1053.42 728.626C1055.43 725.359 1064.17 727.094 1072.93 732.501C1074.99 733.77 1076.86 735.129 1078.5 736.507C1079.29 734.861 1080.22 733.167 1081.29 731.473C1086.79 722.773 1093.89 717.384 1097.13 719.436C1100.38 721.489 1098.54 730.206 1093.04 738.906C1091.56 741.237 1089.97 743.331 1088.38 745.107C1090.36 745.98 1092.43 747.079 1094.51 748.388C1103.22 753.881 1108.61 760.966 1106.57 764.213C1104.52 767.459 1095.8 765.639 1087.09 760.145C1085.2 758.954 1083.47 757.687 1081.93 756.401C1081.13 758.107 1080.17 759.868 1079.06 761.628C1073.55 770.328 1066.46 775.717 1063.21 773.664C1059.97 771.612 1061.8 762.895 1067.31 754.195Z" fill="#B1EC52"/>
<path d="M1059.56 1027.37L1071.01 1063.23L1071.08 1063.45L1071.29 1063.54L1109.37 1079.83L1068.97 1088.95L1068.75 1089L1068.64 1089.21L1050.88 1122.41L1039.43 1086.54L1039.36 1086.32L1039.15 1086.23L1001.07 1069.94L1041.47 1060.82L1041.69 1060.77L1041.8 1060.57L1059.56 1027.37Z" stroke="white"/>
<path d="M723.6 1061.46L728.303 1076.19L728.373 1076.4L728.583 1076.49L744.093 1083.13L727.638 1086.84L727.415 1086.89L727.307 1087.1L720.017 1100.73L715.314 1086L715.244 1085.78L715.034 1085.69L699.524 1079.06L715.979 1075.34L716.202 1075.29L716.31 1075.09L723.6 1061.46Z" stroke="white"/>
</svg>
