<svg width="344" height="186" viewBox="0 0 344 186" fill="none" xmlns="http://www.w3.org/2000/svg">
<path d="M1 171.905L0.672585 171.527L0.238438 171.903L0.670873 172.281L1 171.905ZM38.4414 173.188L38.4357 173.688L38.4414 173.188ZM60.3951 171.905L60.3483 171.407L60.3951 171.905ZM119.171 161.872L119.291 162.357L119.171 161.872ZM169.118 139.59L169.415 139.992L169.118 139.59ZM190.026 117.541L189.553 117.381L190.026 117.541ZM186.89 97.8254L186.588 98.2235L186.89 97.8254ZM106.916 122.266L106.465 122.05L106.916 122.266ZM116.325 168.93L116.58 168.5L116.325 168.93ZM192.64 178.904L192.569 178.41L192.64 178.904ZM300.898 148.514L300.672 148.069L300.898 148.514ZM234.186 0.503671L233.69 0.443194L233.569 1.43585L234.066 1.49633L234.186 0.503671ZM16.3034 159.307L16.6813 158.98L16.0264 158.224L15.6486 158.551L16.3034 159.307ZM15.6468 185.376L16.0232 185.706L16.6815 184.953L16.3051 184.624L15.6468 185.376ZM1 171.905C0.978456 172.404 0.978562 172.404 0.978771 172.404C0.978978 172.404 0.979289 172.404 0.979703 172.404C0.980529 172.404 0.981765 172.405 0.983408 172.405C0.986695 172.405 0.991611 172.405 0.998136 172.405C1.01118 172.406 1.03067 172.407 1.05641 172.408C1.10791 172.41 1.18447 172.413 1.28477 172.418C1.48536 172.426 1.78088 172.439 2.16069 172.455C2.9203 172.487 4.01703 172.533 5.36562 172.588C8.06278 172.7 11.7675 172.849 15.7977 173.002C23.8554 173.308 33.2225 173.629 38.4357 173.688L38.447 172.688C33.2495 172.629 23.8959 172.309 15.8356 172.003C11.8068 171.85 8.10322 171.7 5.40679 171.589C4.0586 171.534 2.96222 171.488 2.20293 171.456C1.82328 171.44 1.5279 171.427 1.32745 171.418C1.22723 171.414 1.15073 171.411 1.09931 171.409C1.07359 171.408 1.05414 171.407 1.04113 171.406C1.03462 171.406 1.02972 171.406 1.02645 171.406C1.02481 171.405 1.02359 171.405 1.02277 171.405C1.02236 171.405 1.02205 171.405 1.02185 171.405C1.02164 171.405 1.02154 171.405 1 171.905ZM38.4357 173.688C45.8264 173.771 53.1238 173.09 60.4418 172.403L60.3483 171.407C53.0223 172.095 45.7766 172.771 38.447 172.688L38.4357 173.688ZM60.4418 172.403C80.4398 170.526 99.786 167.217 119.291 162.357L119.05 161.387C99.5926 166.234 80.296 169.535 60.3483 171.407L60.4418 172.403ZM119.291 162.357C136.799 157.996 154.76 150.827 169.415 139.992L168.821 139.188C154.303 149.921 136.474 157.046 119.05 161.387L119.291 162.357ZM169.415 139.992C173.255 137.154 177.698 134.031 181.58 130.412C185.465 126.79 188.832 122.635 190.5 117.701L189.553 117.381C187.96 122.092 184.725 126.113 180.898 129.68C177.069 133.25 172.689 136.328 168.821 139.188L169.415 139.992ZM190.5 117.701C191.751 114.001 192.683 110.275 192.423 106.804C192.161 103.302 190.686 100.083 187.193 97.4274L186.588 98.2235C189.843 100.698 191.184 103.649 191.426 106.879C191.67 110.14 190.795 113.707 189.553 117.381L190.5 117.701ZM187.193 97.4274C179.623 91.6744 169.901 89.7425 160.755 89.7425V90.7425C169.783 90.7425 179.258 92.6528 186.588 98.2235L187.193 97.4274ZM160.755 89.7425C139.752 89.7425 115.809 102.559 106.465 122.05L107.367 122.482C116.519 103.391 140.074 90.7425 160.755 90.7425V89.7425ZM106.465 122.05C102.933 129.417 101.506 138.944 102.861 147.766C104.217 156.59 108.369 164.777 116.069 169.36L116.58 168.5C109.214 164.116 105.175 156.244 103.85 147.614C102.524 138.983 103.925 129.661 107.367 122.482L106.465 122.05ZM116.069 169.36C139.645 183.391 166.666 183.136 192.711 179.399L192.569 178.41C166.585 182.138 139.853 182.351 116.58 168.5L116.069 169.36ZM192.711 179.399C230.183 174.023 267.256 166.151 301.125 148.96L300.672 148.069C266.95 165.185 230.008 173.038 192.569 178.41L192.711 179.399ZM301.125 148.96C331.809 133.386 349.21 100.428 341.8 69.231C334.384 38.0033 302.182 8.78887 234.186 0.503671L234.066 1.49633C301.852 9.75608 333.548 38.8122 340.827 69.4621C348.114 100.143 331.01 132.67 300.672 148.069L301.125 148.96ZM1.32742 172.283L16.3034 159.307L15.6486 158.551L0.672585 171.527L1.32742 172.283ZM0.670873 172.281L15.6468 185.376L16.3051 184.624L1.32913 171.528L0.670873 172.281Z" fill="#FF7D25"/>
</svg>
