<svg width="297" height="648" viewBox="0 0 297 648" fill="none" xmlns="http://www.w3.org/2000/svg">
<path d="M37.5852 101.787L41.7443 114.659L55.6213 120.549L40.9075 123.828L34.487 135.735L30.3279 122.863L16.4509 116.974L31.1647 113.694L37.5852 101.787Z" fill="#B1EC52"/>
<path fill-rule="evenodd" clip-rule="evenodd" d="M262.188 30.9806C263.508 28.8944 264.935 27.0318 266.366 25.4711C264.562 24.7224 262.662 23.752 260.76 22.5785C253.297 17.9726 248.639 11.9827 250.356 9.19977C252.074 6.41683 259.516 7.89466 266.98 12.5006C268.732 13.5819 270.329 14.7395 271.726 15.914C272.393 14.5119 273.187 13.0682 274.1 11.6251C278.79 4.21372 284.831 -0.376971 287.595 1.3715C290.358 3.11997 288.797 10.5455 284.108 17.9569C282.852 19.9429 281.498 21.7263 280.136 23.2396C281.827 23.9829 283.593 24.9197 285.359 26.0338C292.777 30.7131 297.376 36.7486 295.631 39.5144C293.886 42.2803 286.458 40.7292 279.041 36.0499C277.432 35.0348 275.955 33.956 274.648 32.8605C273.965 34.3136 273.145 35.8133 272.196 37.3124C267.507 44.7237 261.465 49.3144 258.702 47.566C255.938 45.8175 257.499 38.392 262.188 30.9806Z" fill="#B1EC52"/>
<mask id="path-3-inside-1_222_120" fill="white">
<path fill-rule="evenodd" clip-rule="evenodd" d="M25.7893 621.161C27.2174 617.628 28.8699 614.405 30.6118 611.64C27.6648 611.002 24.5113 610.053 21.2997 608.796C8.6941 603.863 -0.0336382 596.054 1.80577 591.353C3.64518 586.653 15.3552 586.841 27.9608 591.774C30.9202 592.933 33.6659 594.249 36.1113 595.647C36.7369 593.333 37.5445 590.922 38.5324 588.478C43.606 575.929 51.5125 567.289 56.192 569.18C60.8716 571.072 60.5521 582.779 55.4785 595.329C54.119 598.692 52.556 601.774 50.9062 604.448C53.6784 605.11 56.6198 606.045 59.6093 607.249C72.1656 612.306 80.8159 620.201 78.9303 624.883C77.0446 629.565 65.337 629.261 52.7807 624.204C50.0569 623.107 47.517 621.876 45.2285 620.574C44.5933 622.969 43.7616 625.473 42.7354 628.012C37.6618 640.561 29.7553 649.201 25.0758 647.309C20.3963 645.417 20.7157 633.71 25.7893 621.161Z"/>
</mask>
<path d="M30.6118 611.64L31.4579 612.173L32.2188 610.965L30.8235 610.663L30.6118 611.64ZM25.7893 621.161L24.8622 620.786L24.8622 620.786L25.7893 621.161ZM21.2997 608.796L20.9353 609.727L21.2997 608.796ZM1.80577 591.353L0.874539 590.989L0.874539 590.989L1.80577 591.353ZM27.9608 591.774L27.5964 592.706L27.9608 591.774ZM36.1113 595.647L35.615 596.515L36.7387 597.157L37.0766 595.908L36.1113 595.647ZM38.5324 588.478L39.4595 588.853L38.5324 588.478ZM56.192 569.18L55.8172 570.108L56.192 569.18ZM55.4785 595.329L54.5514 594.954L55.4785 595.329ZM50.9062 604.448L50.0552 603.923L49.3293 605.1L50.674 605.421L50.9062 604.448ZM59.6093 607.249L59.9829 606.321L59.6093 607.249ZM78.9303 624.883L78.0027 624.509L78.9303 624.883ZM52.7807 624.204L53.1542 623.276L52.7807 624.204ZM45.2285 620.574L45.7231 619.705L44.5947 619.063L44.2619 620.318L45.2285 620.574ZM42.7354 628.012L41.8083 627.637L41.8083 627.637L42.7354 628.012ZM25.0758 647.309L25.4506 646.382L25.4506 646.382L25.0758 647.309ZM29.7656 611.107C27.99 613.926 26.311 617.202 24.8622 620.786L26.7164 621.535C28.1238 618.054 29.7498 614.885 31.4579 612.173L29.7656 611.107ZM20.9353 609.727C24.1937 611.002 27.3982 611.967 30.4 612.618L30.8235 610.663C27.9314 610.036 24.8289 609.103 21.6641 607.865L20.9353 609.727ZM0.874539 590.989C0.272217 592.528 0.582478 594.21 1.41385 595.826C2.24615 597.443 3.6533 599.108 5.46904 600.733C9.10653 603.987 14.5509 607.229 20.9353 609.727L21.6641 607.865C15.4429 605.43 10.2206 602.301 6.80267 599.242C5.09071 597.71 3.87296 596.233 3.19222 594.911C2.51055 593.586 2.41962 592.529 2.73701 591.718L0.874539 590.989ZM28.3252 590.843C21.9408 588.345 15.7425 587.03 10.8621 586.952C8.42587 586.912 6.26241 587.18 4.55337 587.803C2.84623 588.425 1.47686 589.45 0.874539 590.989L2.73701 591.718C3.05439 590.907 3.83855 590.192 5.2383 589.682C6.63614 589.172 8.53292 588.914 10.8299 588.951C15.4157 589.025 21.3752 590.271 27.5964 592.706L28.3252 590.843ZM36.6075 594.779C34.1179 593.356 31.3279 592.018 28.3252 590.843L27.5964 592.706C30.5125 593.847 33.2139 595.143 35.615 596.515L36.6075 594.779ZM37.6053 588.103C36.6029 590.583 35.7823 593.033 35.1459 595.386L37.0766 595.908C37.6914 593.634 38.4862 591.261 39.4595 588.853L37.6053 588.103ZM56.5668 568.253C55.0345 567.634 53.3493 567.925 51.7244 568.739C50.0977 569.553 48.4172 570.941 46.7723 572.739C43.4771 576.34 40.175 581.747 37.6053 588.103L39.4595 588.853C41.9635 582.659 45.1514 577.472 48.2477 574.089C49.7986 572.394 51.2891 571.193 52.6196 570.527C53.9519 569.86 55.0098 569.781 55.8172 570.108L56.5668 568.253ZM56.4056 595.704C58.9753 589.348 60.3592 583.165 60.4923 578.285C60.5588 575.85 60.3153 573.684 59.7115 571.968C59.1083 570.254 58.0992 568.873 56.5668 568.253L55.8172 570.108C56.6246 570.434 57.3304 571.226 57.8249 572.631C58.3188 574.035 58.5557 575.934 58.4931 578.231C58.368 582.816 57.0554 588.761 54.5514 594.954L56.4056 595.704ZM51.7573 604.973C53.4384 602.249 55.0263 599.116 56.4056 595.704L54.5514 594.954C53.2117 598.268 51.6737 601.3 50.0552 603.923L51.7573 604.973ZM50.674 605.421C53.3957 606.071 56.2899 606.99 59.2357 608.176L59.9829 606.321C56.9496 605.1 53.9611 604.15 51.1385 603.476L50.674 605.421ZM59.2357 608.176C65.4326 610.672 70.6238 613.853 74.0114 616.945C75.7082 618.494 76.9113 619.983 77.579 621.312C78.2475 622.644 78.328 623.701 78.0027 624.509L79.8579 625.256C80.4753 623.723 80.1817 622.038 79.3663 620.415C78.55 618.789 77.1593 617.11 75.3597 615.468C71.7544 612.177 66.3423 608.882 59.9829 606.321L59.2357 608.176ZM78.0027 624.509C77.6773 625.317 76.8861 626.024 75.4814 626.52C74.0786 627.016 72.1794 627.256 69.8829 627.196C65.298 627.077 59.3511 625.772 53.1542 623.276L52.4071 625.132C58.7665 627.693 64.9516 629.069 69.831 629.195C72.2667 629.258 74.4327 629.012 76.1478 628.406C77.861 627.801 79.2404 626.79 79.8579 625.256L78.0027 624.509ZM53.1542 623.276C50.4705 622.195 47.9711 620.984 45.7231 619.705L44.7339 621.443C47.0629 622.769 49.6434 624.018 52.4071 625.132L53.1542 623.276ZM43.6625 628.386C44.7038 625.811 45.5489 623.267 46.1951 620.83L44.2619 620.318C43.6378 622.671 42.8194 625.136 41.8083 627.637L43.6625 628.386ZM24.701 648.236C26.2333 648.856 27.9185 648.564 29.5434 647.751C31.1701 646.937 32.8507 645.549 34.4956 643.751C37.7908 640.15 41.0929 634.742 43.6625 628.386L41.8083 627.637C39.3043 633.83 36.1164 639.017 33.0201 642.401C31.4692 644.096 29.9787 645.297 28.6482 645.963C27.316 646.629 26.258 646.709 25.4506 646.382L24.701 648.236ZM24.8622 620.786C22.2925 627.142 20.9086 633.325 20.7755 638.204C20.709 640.64 20.9525 642.806 21.5563 644.522C22.1595 646.236 23.1687 647.617 24.701 648.236L25.4506 646.382C24.6432 646.056 23.9375 645.264 23.4429 643.858C22.9491 642.455 22.7121 640.555 22.7747 638.259C22.8998 633.674 24.2124 627.729 26.7164 621.535L24.8622 620.786Z" fill="white" mask="url(#path-3-inside-1_222_120)"/>
</svg>
