<svg width="69" height="140" viewBox="0 0 69 140" fill="none" xmlns="http://www.w3.org/2000/svg">
<path d="M51.2555 139.5C49.1585 139.5 47.0142 137.765 44.9606 134.247C42.9275 130.764 41.0796 125.691 39.521 119.378C36.4059 106.76 34.474 89.3018 34.474 70C34.474 50.6982 36.4059 33.2404 39.521 20.6224C41.0796 14.3095 42.9275 9.2361 44.9606 5.753C47.0142 2.23462 49.1585 0.499999 51.2555 0.499999C53.3526 0.499999 55.4968 2.23462 57.5505 5.753C59.5835 9.2361 61.4315 14.3095 62.99 20.6224C66.1052 33.2404 68.0371 50.6982 68.0371 70C68.0371 89.3018 66.1052 106.76 62.99 119.378C61.4315 125.691 59.5835 130.764 57.5505 134.247C55.4968 137.765 53.3526 139.5 51.2555 139.5Z" stroke="white"/>
<path d="M35.0329 139.5C32.9358 139.5 30.7916 137.765 28.7379 134.247C26.7049 130.764 24.8569 125.691 23.2984 119.378C20.1833 106.76 18.2513 89.3018 18.2513 70C18.2513 50.6982 20.1833 33.2404 23.2984 20.6224C24.8569 14.3095 26.7049 9.2361 28.7379 5.753C30.7916 2.23462 32.9358 0.499999 35.0329 0.499999C37.13 0.499999 39.2742 2.23462 41.3278 5.753C43.3609 9.2361 45.2089 14.3095 46.7674 20.6224C49.8825 33.2404 51.8145 50.6982 51.8145 70C51.8144 89.3018 49.8825 106.76 46.7674 119.378C45.2088 125.691 43.3609 130.764 41.3278 134.247C39.2742 137.765 37.13 139.5 35.0329 139.5Z" stroke="white"/>
<path d="M18.8083 139.5C16.7112 139.5 14.567 137.765 12.5133 134.247C10.4803 130.764 8.6323 125.691 7.07378 119.378C3.95865 106.76 2.0267 89.3018 2.0267 70C2.0267 50.6982 3.95865 33.2404 7.07378 20.6224C8.6323 14.3095 10.4803 9.2361 12.5133 5.753C14.567 2.23462 16.7112 0.499999 18.8083 0.499999C20.9054 0.499999 23.0496 2.23462 25.1032 5.753C27.1363 9.2361 28.9842 14.3095 30.5428 20.6224C33.6579 33.2404 35.5898 50.6982 35.5898 70C35.5898 89.3018 33.6579 106.76 30.5428 119.378C28.9842 125.691 27.1363 130.764 25.1032 134.247C23.0496 137.765 20.9053 139.5 18.8083 139.5Z" stroke="white"/>
<path d="M1.87858 139.5C-0.218502 139.5 -2.36273 137.765 -4.41636 134.247C-6.44941 130.764 -8.29739 125.691 -9.85591 119.378C-12.971 106.76 -14.903 89.3018 -14.903 70C-14.903 50.6982 -12.971 33.2404 -9.8559 20.6224C-8.29738 14.3095 -6.44941 9.2361 -4.41636 5.753C-2.36272 2.23462 -0.218496 0.499999 1.87859 0.499999C3.97567 0.499999 6.11989 2.23462 8.17353 5.753C10.2066 9.2361 12.0546 14.3095 13.6131 20.6224C16.7282 33.2404 18.6602 50.6982 18.6602 70C18.6602 89.3018 16.7282 106.76 13.6131 119.378C12.0545 125.691 10.2066 130.764 8.17352 134.247C6.11989 137.765 3.97566 139.5 1.87858 139.5Z" stroke="white"/>
<path d="M-13.639 139.5C-15.7361 139.5 -17.8803 137.765 -19.9339 134.247C-21.967 130.764 -23.815 125.691 -25.3735 119.378C-28.4886 106.76 -30.4206 89.3018 -30.4206 70C-30.4206 50.6982 -28.4886 33.2404 -25.3735 20.6224C-23.815 14.3095 -21.967 9.2361 -19.9339 5.753C-17.8803 2.23462 -15.7361 0.499999 -13.639 0.499999C-11.5419 0.499999 -9.39769 2.23462 -7.34405 5.753C-5.311 9.2361 -3.46302 14.3095 -1.9045 20.6224C1.21062 33.2404 3.14258 50.6982 3.14258 70C3.14257 89.3018 1.21062 106.76 -1.90451 119.378C-3.46303 125.691 -5.31101 130.764 -7.34405 134.247C-9.39769 137.765 -11.5419 139.5 -13.639 139.5Z" stroke="white"/>
</svg>
