<svg width="364" height="237" viewBox="0 0 364 237" fill="none" xmlns="http://www.w3.org/2000/svg">
<path d="M1 222.44L0.673394 222.062L0.236558 222.439L0.67168 222.818L1 222.44ZM38.5014 223.72L38.4958 224.22L38.5014 223.72ZM60.4903 222.44L60.4438 221.943L60.4903 222.44ZM119.36 212.435L119.481 212.92L119.36 212.435ZM169.388 190.213L169.684 190.616L169.388 190.213ZM190.33 168.224L189.856 168.064L190.33 168.224ZM187.188 148.562L186.887 148.961L187.188 148.562ZM107.086 172.936L106.635 172.719L107.086 172.936ZM116.51 219.474L116.765 219.044L116.51 219.474ZM192.947 229.421L192.877 228.926L192.947 229.421ZM301.38 199.114L301.154 198.667L301.38 199.114ZM327.885 0.680905L327.566 0.295966L326.796 0.934155L327.115 1.31909L327.885 0.680905ZM16.3266 209.879L16.7052 209.552L16.052 208.795L15.6734 209.121L16.3266 209.879ZM15.6717 235.877L16.0488 236.205L16.7054 235.451L16.3283 235.123L15.6717 235.877ZM1 222.44C0.978549 222.94 0.978655 222.94 0.978864 222.94C0.979071 222.94 0.979383 222.94 0.979797 222.94C0.980625 222.94 0.981863 222.94 0.983509 222.94C0.986801 222.94 0.991725 222.941 0.99826 222.941C1.01133 222.941 1.03084 222.942 1.05663 222.943C1.10821 222.946 1.18489 222.949 1.28535 222.953C1.48626 222.962 1.78226 222.974 2.16268 222.99C2.9235 223.022 4.02199 223.068 5.37275 223.124C8.07423 223.234 11.7849 223.383 15.8215 223.536C23.8922 223.841 33.2743 224.162 38.4958 224.22L38.507 223.22C33.3011 223.162 23.9325 222.842 15.8593 222.537C11.824 222.384 8.11449 222.235 5.41374 222.124C4.06338 222.069 2.96525 222.023 2.20473 221.991C1.82447 221.975 1.52862 221.963 1.32785 221.954C1.22747 221.95 1.15085 221.946 1.09934 221.944C1.07358 221.943 1.0541 221.942 1.04107 221.942C1.03455 221.941 1.02964 221.941 1.02636 221.941C1.02473 221.941 1.0235 221.941 1.02268 221.941C1.02227 221.941 1.02196 221.941 1.02175 221.941C1.02155 221.941 1.02145 221.941 1 222.44ZM38.4958 224.22C45.8981 224.303 53.2072 223.623 60.5369 222.938L60.4438 221.943C53.106 222.628 45.8486 223.303 38.507 223.22L38.4958 224.22ZM60.5369 222.938C80.5668 221.066 99.9439 217.766 119.481 212.92L119.24 211.95C99.7513 216.784 80.4236 220.075 60.4438 221.943L60.5369 222.938ZM119.481 212.92C137.016 208.57 155.006 201.421 169.684 190.616L169.091 189.811C154.55 200.515 136.692 207.62 119.24 211.95L119.481 212.92ZM169.684 190.616C173.53 187.785 177.98 184.671 181.869 181.062C185.76 177.45 189.132 173.306 190.803 168.385L189.856 168.064C188.261 172.762 185.021 176.771 181.188 180.329C177.353 183.888 172.965 186.959 169.091 189.811L169.684 190.616ZM190.803 168.385C192.056 164.695 192.99 160.978 192.729 157.516C192.466 154.022 190.989 150.812 187.49 148.164L186.887 148.961C190.148 151.429 191.49 154.372 191.732 157.591C191.977 160.843 191.101 164.399 189.856 168.064L190.803 168.385ZM187.49 148.164C179.909 142.427 170.171 140.5 161.011 140.5V141.5C170.054 141.5 179.545 143.405 186.887 148.961L187.49 148.164ZM161.011 140.5C139.976 140.5 115.995 153.281 106.635 172.719L107.536 173.153C116.703 154.115 140.296 141.5 161.011 141.5V140.5ZM106.635 172.719C103.098 180.067 101.668 189.569 103.025 198.368C104.383 207.169 108.543 215.334 116.255 219.904L116.765 219.044C109.386 214.671 105.341 206.821 104.014 198.215C102.686 189.608 104.089 180.312 107.536 173.153L106.635 172.719ZM116.255 219.904C139.868 233.897 166.931 233.643 193.018 229.916L192.877 228.926C166.851 232.644 140.075 232.857 116.765 219.044L116.255 219.904ZM193.018 229.916C230.55 224.554 267.682 216.704 301.605 199.56L301.154 198.667C267.378 215.737 230.376 223.569 192.877 228.926L193.018 229.916ZM301.605 199.56C363.031 168.516 391.076 76.9111 327.885 0.680905L327.115 1.31909C389.924 77.0889 361.969 167.933 301.154 198.667L301.605 199.56ZM1.32661 222.819L16.3266 209.879L15.6734 209.121L0.673394 222.062L1.32661 222.819ZM0.67168 222.818L15.6717 235.877L16.3283 235.123L1.32832 222.063L0.67168 222.818Z" fill="#FF7D25"/>
</svg>
