<svg width="131" height="23" viewBox="0 0 131 23" fill="none" xmlns="http://www.w3.org/2000/svg">
<path d="M27.8195 6.36894H22.9499L18.3129 11.4381V1.29981H14.5567V3.79282C14.4321 3.63493 14.3074 3.47703 14.1578 3.31914C13.3879 2.5666 12.4687 1.98399 11.4595 1.60895C10.4504 1.23392 9.37376 1.07481 8.29926 1.14192C7.26848 1.09098 6.23999 1.28071 5.29524 1.69612C4.35049 2.11152 3.51543 2.74117 2.85619 3.53521C2.32365 4.18732 1.93749 4.94625 1.72386 5.76062C1.51024 6.57499 1.47414 7.42577 1.618 8.25531C2.49055 12.161 6.11372 12.7843 8.78124 13.1333C10.8837 13.4075 12.8947 13.7898 12.8449 15.6679C12.795 17.5459 10.6261 18.0778 9.15519 18.0778C5.40737 18.0778 5.28273 15.3105 5.28273 15.3105H1.24405C1.31125 16.8439 1.89726 18.3089 2.90606 19.4656C4.30214 21.0362 6.40457 21.8339 9.15519 21.8339C11.1273 21.8783 13.0479 21.2016 14.5567 19.9309V21.5929H18.3129V16.8063L19.6425 15.3438L23.4401 21.5929H27.8195L22.2934 12.4519L27.8195 6.36894ZM5.38244 7.35783C5.05004 5.90358 6.49598 4.62383 8.37405 4.62383C10.0361 4.62383 11.7479 4.99778 12.3961 7.34952H14.5567V10.9395C11.856 8.72899 6.01401 10.1168 5.38244 7.35783Z" fill="#B1EC52"/>
<path d="M44.1242 10.3744C44.0061 10.1759 43.8727 9.98697 43.7253 9.80927C43.5462 9.62144 43.3421 9.45925 43.1187 9.3273C42.8585 9.17239 42.5791 9.05226 42.2877 8.96998C41.9012 8.8776 41.5049 8.83294 41.1076 8.83701C40.8819 8.84131 40.6568 8.86353 40.4345 8.90348C40.1501 8.97073 39.8721 9.06249 39.6035 9.17773C39.3095 9.33981 39.0313 9.52899 38.7725 9.7428C38.4869 10.0096 38.2506 10.3247 38.0745 10.6735C37.8338 11.1143 37.6575 11.5872 37.5509 12.0779C37.4152 12.7226 37.3512 13.3803 37.3598 14.0391C37.3484 14.7758 37.4351 15.5107 37.6174 16.2246C37.7543 16.8198 38.0024 17.3837 38.3487 17.8866C38.651 18.3159 39.057 18.6617 39.5287 18.8922C40.0043 19.1358 40.5317 19.2613 41.0661 19.2578C41.6214 19.275 42.1739 19.1729 42.6865 18.9586C43.071 18.7758 43.4155 18.5188 43.7004 18.2024C43.9384 17.9296 44.1218 17.6137 44.2405 17.2717C44.3563 17.0007 44.4562 16.7233 44.5397 16.4407H47.6726C47.5449 17.3142 47.2635 18.1583 46.8415 18.9337C46.4696 19.5961 45.9763 20.1824 45.3873 20.6622C44.8214 21.1239 44.1728 21.4736 43.476 21.6926C41.7473 22.2166 39.8915 22.1345 38.2158 21.46C37.3726 21.1097 36.6218 20.5694 36.0219 19.8811C35.4116 19.148 34.954 18.3004 34.6757 17.388C34.3509 16.3304 34.1938 15.2284 34.2103 14.1222C34.2046 13.2833 34.2966 12.4467 34.4845 11.6292C34.6407 10.9263 34.8894 10.2473 35.2241 9.60984C35.5257 9.0515 35.9095 8.54166 36.3626 8.09741C36.7724 7.67404 37.2463 7.31789 37.767 7.04204C38.2746 6.76839 38.813 6.55635 39.3708 6.41047C39.9301 6.28537 40.5013 6.2213 41.0744 6.21936C41.8112 6.20736 42.5462 6.294 43.2599 6.47697C43.841 6.63534 44.3995 6.86711 44.9219 7.16669C45.3734 7.43754 45.7846 7.77042 46.1435 8.15558C46.4601 8.50455 46.7386 8.88619 46.9745 9.29405C47.1676 9.67334 47.3289 10.0681 47.4565 10.4741C47.5596 10.8318 47.6237 11.1996 47.6476 11.571H44.4898L44.3485 11.0641C44.2914 10.8288 44.2164 10.5982 44.1242 10.3744Z" fill="#B1EC52"/>
<path d="M56.0902 10.3989H59.9627L55.3257 15.0525L60.1455 21.5925H56.3312L53.0072 16.8558L51.902 18.0774V21.6092H48.9935V10.3989H51.902V14.6453L56.0902 10.3989Z" fill="#B1EC52"/>
<path d="M60.0128 13.6152C60.2417 12.9113 60.6245 12.2671 61.1333 11.7295C61.6422 11.192 62.2643 10.7744 62.9546 10.5072C63.7086 10.1994 64.5169 10.0468 65.3313 10.0585C66.1619 10.0446 66.987 10.1972 67.7578 10.5072C68.4367 10.7728 69.0472 11.1874 69.5445 11.7205C70.0416 12.2735 70.428 12.9167 70.6829 13.6152C71.1813 15.1633 71.1813 16.8287 70.6829 18.3768C70.428 19.0753 70.0416 19.7185 69.5445 20.2715C69.0405 20.7967 68.4318 21.21 67.7578 21.4848C66.987 21.7948 66.1619 21.9474 65.3313 21.9335C64.5169 21.9452 63.7086 21.7926 62.9546 21.4848C62.2765 21.2041 61.6607 20.7917 61.143 20.2715C60.6348 19.7283 60.2493 19.0821 60.0128 18.3768C59.481 16.8342 59.481 15.1578 60.0128 13.6152ZM62.7884 17.2383C62.8586 17.6396 63.0176 18.02 63.2538 18.3519C63.4504 18.699 63.7376 18.9863 64.0848 19.1829C64.4731 19.3895 64.9081 19.4925 65.3479 19.4821C65.8014 19.4975 66.2511 19.3944 66.6526 19.1829C66.9899 18.999 67.2757 18.7332 67.4836 18.4101C67.7013 18.077 67.851 17.7042 67.924 17.3131C68.1013 16.4664 68.1013 15.5921 67.924 14.7453C67.851 14.349 67.7014 13.9708 67.4836 13.6318C67.2689 13.3122 66.9848 13.0452 66.6526 12.8506C66.2486 12.6482 65.7992 12.5537 65.3479 12.5764C64.9081 12.5659 64.4731 12.669 64.0848 12.8756C63.7486 13.0612 63.4633 13.3266 63.2538 13.6484C63.0219 13.9857 62.8633 14.3679 62.7884 14.7703C62.6972 15.1854 62.6471 15.6085 62.6388 16.0334C62.6483 16.4418 62.6984 16.8482 62.7884 17.2467V17.2383Z" fill="#B1EC52"/>
<path d="M76.5333 12.759L76.4918 14.8365C76.4502 16.0166 76.3588 17.047 76.2591 17.9362C76.1672 18.6925 75.9744 19.4332 75.6857 20.1383C75.4527 20.6734 75.083 21.1377 74.6137 21.4846C74.0978 21.8021 73.4988 21.9584 72.8935 21.9333C72.5528 21.9333 72.2786 21.9333 72.0625 21.8918C71.8517 21.8564 71.6455 21.7978 71.4476 21.7173V19.2824L71.8298 19.4071C72.0042 19.4176 72.179 19.4176 72.3534 19.4071C72.5696 19.4173 72.7813 19.3428 72.9434 19.1993C73.1539 19.0034 73.3063 18.7533 73.3838 18.4763C73.5308 17.9969 73.631 17.5043 73.683 17.0055C73.7411 16.3739 73.7827 15.5761 73.8076 14.5872L73.8907 10.3574H82.8988V21.551H80.0152V12.759H76.5333Z" fill="#B1EC52"/>
<path d="M92.0643 10.3989H95.9368L91.3081 15.0525L96.1279 21.5925H92.3385L89.056 16.8558L87.9093 18.0774V21.6092H85.0091V10.3989H87.9093V14.6453L92.0643 10.3989Z" fill="#B1EC52"/>
<path d="M95.9951 13.6152C96.2281 12.9121 96.6132 12.269 97.1231 11.7318C97.633 11.1945 98.2552 10.7764 98.9452 10.5072C99.6992 10.1994 100.508 10.0468 101.322 10.0585C102.15 10.0446 102.972 10.1972 103.74 10.5072C104.42 10.7752 105.033 11.1894 105.535 11.7205C106.029 12.2742 106.413 12.9173 106.665 13.6152C107.175 15.1615 107.175 16.8305 106.665 18.3768C106.413 19.0747 106.029 19.7178 105.535 20.2715C105.026 20.795 104.415 21.208 103.74 21.4848C102.972 21.7948 102.15 21.9474 101.322 21.9335C100.508 21.9452 99.6992 21.7926 98.9452 21.4848C98.2671 21.2041 97.6513 20.7917 97.1336 20.2715C96.6228 19.7288 96.2345 19.0826 95.9951 18.3768C95.4633 16.8342 95.4633 15.1578 95.9951 13.6152ZM98.779 17.2383C98.8501 17.6379 99.0059 18.0176 99.2361 18.3519C99.4359 18.6966 99.7223 18.9831 100.067 19.1829C100.455 19.3906 100.89 19.4937 101.33 19.4821C101.784 19.4963 102.233 19.3933 102.635 19.1829C102.972 18.999 103.258 18.7332 103.466 18.4101C103.684 18.077 103.833 17.7042 103.906 17.3131C104.073 16.4653 104.073 15.5931 103.906 14.7453C103.833 14.3491 103.684 13.9708 103.466 13.6318C103.251 13.3122 102.967 13.0452 102.635 12.8506C102.231 12.6492 101.781 12.5548 101.33 12.5764C100.89 12.5648 100.455 12.6679 100.067 12.8756C99.7331 13.0641 99.4483 13.329 99.2361 13.6484C99.0102 13.9881 98.8548 14.3695 98.779 14.7703C98.6878 15.1854 98.6377 15.6085 98.6294 16.0334C98.6389 16.4418 98.689 16.8482 98.779 17.2467V17.2383Z" fill="#B1EC52"/>
<path d="M115.69 10.5236C116.131 10.6168 116.557 10.7736 116.953 10.989C117.299 11.2197 117.584 11.5304 117.784 11.8948C118.009 12.3426 118.118 12.8398 118.1 13.3407C118.108 13.6217 118.072 13.9022 117.992 14.1717C117.938 14.401 117.836 14.6163 117.692 14.8033C117.585 14.9765 117.444 15.1262 117.277 15.2437C117.124 15.372 116.953 15.4783 116.77 15.5595C117.294 15.7219 117.747 16.0555 118.058 16.5068C118.358 16.9716 118.512 17.516 118.499 18.0691C118.507 18.5578 118.419 19.0434 118.241 19.4984C118.066 19.9157 117.802 20.29 117.468 20.5954C117.114 20.9145 116.698 21.1577 116.247 21.31C115.729 21.4814 115.187 21.5656 114.643 21.5593H108.377V10.399H114.194C114.695 10.3974 115.196 10.4391 115.69 10.5236ZM114.385 14.6786C114.567 14.6332 114.739 14.5543 114.892 14.4459C115.02 14.3604 115.117 14.2348 115.166 14.0886C115.225 13.9206 115.254 13.7432 115.249 13.5651C115.252 13.4061 115.223 13.2481 115.166 13.0997C115.104 12.961 115.01 12.8386 114.892 12.7424C114.743 12.6372 114.577 12.5585 114.402 12.5097C114.149 12.4473 113.889 12.4194 113.629 12.4266H111.31V14.7617H113.546C113.825 14.7845 114.106 14.7817 114.385 14.7534V14.6786ZM114.576 19.3738C114.792 19.29 114.992 19.1691 115.166 19.0165C115.293 18.8962 115.385 18.7441 115.432 18.576C115.534 18.1927 115.519 17.7878 115.391 17.4126C115.332 17.2392 115.215 17.0919 115.058 16.9971C114.879 16.8629 114.666 16.7822 114.443 16.7645C114.146 16.7175 113.846 16.6953 113.546 16.698H111.31V19.4984H113.546C113.892 19.519 114.239 19.4882 114.576 19.407V19.3738Z" fill="#B1EC52"/>
<path d="M119.712 13.6152C119.941 12.9113 120.324 12.2671 120.833 11.7295C121.342 11.192 121.964 10.7744 122.654 10.5072C123.408 10.1994 124.216 10.0468 125.031 10.0585C125.859 10.0446 126.681 10.1972 127.449 10.5072C128.13 10.7727 128.743 11.1873 129.244 11.7205C129.74 12.2723 130.124 12.916 130.374 13.6152C130.884 15.1615 130.884 16.8305 130.374 18.3768C130.124 19.076 129.74 19.7197 129.244 20.2715C128.737 20.7969 128.125 21.2102 127.449 21.4848C126.681 21.7948 125.859 21.9474 125.031 21.9335C124.216 21.9452 123.408 21.7926 122.654 21.4848C121.976 21.2041 121.36 20.7917 120.842 20.2715C120.334 19.7283 119.949 19.0821 119.712 18.3768C119.169 16.836 119.169 15.156 119.712 13.6152ZM122.488 17.2383C122.558 17.6396 122.717 18.02 122.953 18.3519C123.15 18.699 123.437 18.9863 123.784 19.1829C124.172 19.3906 124.607 19.4937 125.047 19.4821C125.501 19.4975 125.95 19.3944 126.352 19.1829C126.689 18.999 126.975 18.7332 127.183 18.4101C127.401 18.077 127.55 17.7042 127.623 17.3131C127.79 16.4653 127.79 15.5931 127.623 14.7453C127.55 14.3491 127.401 13.9708 127.183 13.6318C126.968 13.3122 126.684 13.0452 126.352 12.8506C125.948 12.6482 125.499 12.5537 125.047 12.5764C124.607 12.5648 124.172 12.6679 123.784 12.8756C123.448 13.0612 123.163 13.3266 122.953 13.6484C122.721 13.9857 122.563 14.3679 122.488 14.7703C122.397 15.1854 122.346 15.6085 122.338 16.0334C122.348 16.4418 122.398 16.8482 122.488 17.2467V17.2383Z" fill="#B1EC52"/>
</svg>
