<svg width="128" height="39" viewBox="0 0 128 39" fill="none" xmlns="http://www.w3.org/2000/svg">
<g clip-path="url(#clip0_405_1173)">
<path d="M3.50654 3.50654C5.11145 1.90163 7.28818 1 9.55787 1H37.2315V28.6736C37.2315 30.9433 36.3299 33.12 34.7249 34.7249C33.12 36.3299 30.9433 37.2315 28.6736 37.2315H9.55787C7.28818 37.2315 5.11145 36.3299 3.50654 34.7249C1.90163 33.12 1 30.9433 1 28.6736V9.55787C1 7.28818 1.90163 5.11145 3.50654 3.50654Z" fill="#050505" stroke="white" stroke-width="2"/>
<path d="M31.593 14.333H27.0043L22.633 19.1158V9.55797H19.0925V11.8873C18.9786 11.7372 18.8544 11.5896 18.7198 11.4447C17.9953 10.733 17.1298 10.1808 16.179 9.82377C15.2282 9.46673 14.2132 9.31271 13.1994 9.37163C12.2261 9.32681 11.2557 9.50902 10.365 9.90385C9.47423 10.2987 8.68756 10.8953 8.06714 11.6466C7.56508 12.2611 7.2012 12.9765 7.00023 13.7442C6.79927 14.5119 6.76594 15.3138 6.9025 16.0955C7.72551 19.7758 11.1418 20.3659 13.6497 20.692C15.6296 20.9482 17.5318 21.3131 17.4775 23.0756C17.4231 24.8381 15.3578 25.3428 13.9758 25.3428C10.443 25.3428 10.3266 22.734 10.3266 22.734H6.5531C6.61832 24.1661 7.16554 25.5342 8.10596 26.6162C9.4259 28.0992 11.4058 28.8445 13.9913 28.8445C15.8508 28.8866 17.6618 28.2489 19.0847 27.051V28.6038H22.6252V24.1394L23.883 22.7728L27.4624 28.6504H31.5852L26.3987 20.0398L31.593 14.333ZM10.4508 15.2647C10.1402 13.8982 11.499 12.687 13.2692 12.687C14.8221 12.687 16.4448 13.0441 17.0505 15.2647H19.0925V18.6345C16.5535 16.5536 11.0409 17.858 10.4508 15.2647Z" fill="white"/>
<path d="M47.4323 25.7153C47.7577 26.0358 48.1497 26.2806 48.5805 26.4322C49.0113 26.5839 49.4703 26.6387 49.9247 26.5927C50.5112 26.6093 51.0964 26.528 51.6561 26.352C52.0218 26.259 52.3453 26.0449 52.5737 25.7446C52.8021 25.4443 52.922 25.0754 52.9139 24.6982C52.9211 24.4761 52.8679 24.2562 52.7598 24.062C52.6518 23.8678 52.4931 23.7066 52.3005 23.5956C51.6786 23.2714 51.011 23.0436 50.3206 22.9201L48.7678 22.5785C47.678 22.3921 46.6278 22.0219 45.6621 21.4837C45.1768 21.1314 44.7891 20.6616 44.5351 20.1183C44.2812 19.5751 44.1693 18.9763 44.2101 18.378C44.1972 17.7716 44.317 17.1697 44.5611 16.6145C44.8052 16.0592 45.1677 15.564 45.6232 15.1636C46.7838 14.2383 48.2501 13.7837 49.7306 13.8902C51.1221 13.8424 52.4892 14.2635 53.6127 15.0859C54.1632 15.4956 54.6067 16.0321 54.9054 16.6499C55.2042 17.2676 55.3493 17.9484 55.3286 18.6342H52.4558C52.4555 18.2507 52.3495 17.8746 52.1496 17.5472C51.9496 17.2199 51.6634 16.954 51.3222 16.7786C50.7792 16.5229 50.1829 16.4004 49.583 16.4214C48.9308 16.3876 48.2836 16.5527 47.7274 16.895C47.5084 17.0314 47.3292 17.223 47.2079 17.4506C47.0866 17.6783 47.0274 17.9339 47.0363 18.1917C47.028 18.4305 47.0888 18.6667 47.2114 18.8719C47.3339 19.0771 47.5131 19.2426 47.7274 19.3486C48.3222 19.6151 48.9445 19.8156 49.583 19.9464L52.0599 20.5287C52.9425 20.7053 53.7784 21.065 54.5134 21.5847C54.9452 21.9352 55.2874 22.3835 55.5115 22.8925C55.7357 23.4015 55.8353 23.9566 55.8023 24.5118C55.812 25.1215 55.6869 25.7258 55.4359 26.2815C55.1849 26.8371 54.8142 27.3305 54.3503 27.7262C53.1344 28.6696 51.6158 29.1362 50.08 29.0384C48.5072 29.1241 46.9528 28.6663 45.6776 27.7418C45.1492 27.3296 44.728 26.7961 44.4495 26.1866C44.1711 25.577 44.0437 24.9093 44.0781 24.2401H46.8966C46.9417 24.7705 47.1265 25.2795 47.4323 25.7153Z" fill="white"/>
<path d="M63.4654 18.0986H66.8895L63.1859 22.1594L67.068 28.6659H63.6673L61.1361 24.116L59.9792 25.335V28.6659H57.2617V14.364H59.9948V22.0817L63.4654 18.0986Z" fill="white"/>
<path d="M72.6507 29.0389C71.8897 29.0938 71.1263 28.9717 70.4204 28.6821C69.7145 28.3925 69.0853 27.9432 68.5822 27.3695C67.6766 26.2395 67.1982 24.8264 67.2312 23.3787C67.2083 21.9396 67.6858 20.5372 68.5822 19.4111C69.0834 18.8346 69.712 18.3829 70.4183 18.0918C71.1245 17.8006 71.8889 17.6782 72.6507 17.734C73.4163 17.6751 74.185 17.796 74.8955 18.0872C75.606 18.3784 76.2385 18.8318 76.7425 19.4111C77.6368 20.5434 78.1089 21.9517 78.078 23.3942C78.116 24.8401 77.6432 26.2532 76.7425 27.3851C76.2355 27.9592 75.6018 28.4075 74.8916 28.6945C74.1815 28.9815 73.4143 29.0994 72.6507 29.0389ZM75.1663 23.3787C75.231 22.5091 75.0102 21.6423 74.5374 20.9096C74.3078 20.6395 74.0223 20.4226 73.7005 20.2738C73.3787 20.125 73.0285 20.048 72.674 20.048C72.3195 20.048 71.9693 20.125 71.6475 20.2738C71.3257 20.4226 71.0402 20.6395 70.8106 20.9096C70.3269 21.6385 70.0951 22.5057 70.1506 23.3787C70.0928 24.247 70.3249 25.11 70.8106 25.8322C71.0371 26.1071 71.3217 26.3284 71.6438 26.4804C71.966 26.6324 72.3178 26.7112 72.674 26.7112C73.0302 26.7112 73.382 26.6324 73.7042 26.4804C74.0263 26.3284 74.3109 26.1071 74.5374 25.8322C75.0122 25.1062 75.2333 24.2435 75.1663 23.3787Z" fill="white"/>
<path d="M82.4027 14.3098V28.666H79.6309V14.3098H82.4027Z" fill="white"/>
<path d="M90.7727 18.0986H94.2045L90.501 22.1594L94.3831 28.6659H90.9979L88.4667 24.116L87.3098 25.335V28.6659H84.5768V14.364H87.3098V22.0817L90.7727 18.0986Z" fill="white"/>
<path d="M99.9656 29.0386C99.2046 29.0936 98.4412 28.9715 97.7353 28.6819C97.0294 28.3922 96.4002 27.943 95.8972 27.3693C94.9915 26.2393 94.5132 24.8262 94.5462 23.3785C94.5232 21.9394 95.0008 20.5369 95.8972 19.4109C96.9824 18.3407 98.4454 17.7407 99.9695 17.7407C101.494 17.7407 102.957 18.3407 104.042 19.4109C104.936 20.5432 105.408 21.9515 105.377 23.394C105.412 24.8346 104.939 26.2416 104.042 27.3693C103.538 27.9441 102.908 28.394 102.2 28.6837C101.493 28.9733 100.728 29.0949 99.9656 29.0386ZM102.489 23.3785C102.545 22.5055 102.313 21.6383 101.829 20.9094C101.599 20.6393 101.314 20.4224 100.992 20.2736C100.67 20.1248 100.32 20.0477 99.9656 20.0477C99.6112 20.0477 99.2609 20.1248 98.9391 20.2736C98.6174 20.4224 98.3318 20.6393 98.1022 20.9094C97.6186 21.6383 97.3868 22.5055 97.4422 23.3785C97.3844 24.2468 97.6165 25.1098 98.1022 25.832C98.3288 26.1069 98.6133 26.3282 98.9355 26.4802C99.2576 26.6322 99.6094 26.711 99.9656 26.711C100.322 26.711 100.674 26.6322 100.996 26.4802C101.318 26.3282 101.603 26.1069 101.829 25.832C102.315 25.1098 102.547 24.2468 102.489 23.3785Z" fill="white"/>
<path d="M109.655 28.6661L105.851 18.0522H108.957L111.169 25.8709L113.429 18.0522H116.395L112.582 28.6661H109.655Z" fill="white"/>
<path d="M122.241 29.0386C121.48 29.0954 120.716 28.9741 120.01 28.6843C119.304 28.3946 118.675 27.9443 118.173 27.3692C117.261 26.2419 116.78 24.8276 116.814 23.3784C116.787 21.9374 117.268 20.5329 118.173 19.4108C119.257 18.3364 120.722 17.7336 122.249 17.7336C123.776 17.7336 125.241 18.3364 126.325 19.4108C127.226 20.5396 127.699 21.9503 127.661 23.3939C127.703 24.8404 127.23 26.2549 126.325 27.3848C125.819 27.9578 125.187 28.4054 124.478 28.6924C123.769 28.9794 123.004 29.0979 122.241 29.0386ZM124.749 23.3784C124.805 22.5054 124.573 21.6382 124.089 20.9093C123.872 20.629 123.591 20.4045 123.27 20.2546C122.948 20.1047 122.596 20.0337 122.241 20.0475C121.88 20.0287 121.519 20.0973 121.189 20.2473C120.859 20.3973 120.57 20.6243 120.347 20.9093C119.867 21.6398 119.635 22.5058 119.687 23.3784C119.633 24.2464 119.864 25.1083 120.347 25.8319C120.565 26.1195 120.851 26.3496 121.178 26.5025C121.505 26.6553 121.865 26.7263 122.226 26.7093C122.582 26.7238 122.936 26.6516 123.258 26.4987C123.58 26.3459 123.86 26.117 124.074 25.8319C124.565 25.1116 124.802 24.2485 124.749 23.3784Z" fill="white"/>
</g>
<defs>
<clipPath id="clip0_405_1173">
<rect width="127.661" height="38.2315" fill="white"/>
</clipPath>
</defs>
</svg>
