<svg width="42" height="32" viewBox="0 0 42 32" fill="none" xmlns="http://www.w3.org/2000/svg">
<g clip-path="url(#clip0_100_587)">
<path d="M4.46098 27.2509C4.34605 26.8285 4.118 26.0099 2.91903 26.0099C2.22219 26.0099 1.16897 26.5115 1.16897 28.4854C1.16897 29.7388 1.6954 30.9003 2.91903 30.9003C3.72427 30.9003 4.28913 30.4111 4.46098 29.5539H5.90831C5.62153 31.0769 4.63465 32.1355 2.89256 32.1355C1.0457 32.1355 -0.27655 30.8719 -0.27655 28.4653C-0.27655 26.0183 1.12219 24.7773 2.91069 24.7773C4.98995 24.7773 5.82927 26.2211 5.90831 27.2509H4.46098Z" fill="#BFDF14"/>
<path d="M7.67983 28.7364L9.38132 26.7705H11.0386L9.22977 28.7729L11.0871 31.9531H9.46797L8.24071 29.7272L7.67983 30.3163V31.9531H6.32932V26.7705H7.67983V28.7364Z" fill="#BFDF14"/>
<path d="M16.0282 29.3517C16.0282 31.2198 14.7828 32.0891 13.404 32.0891C12.0274 32.0891 10.7719 31.2326 10.7719 29.3638C10.7719 27.4935 12.0274 26.6358 13.404 26.6358C14.7828 26.6358 16.0282 27.4832 16.0282 29.3517ZM12.1605 29.3517C12.1605 30.0156 12.3606 30.9396 13.404 30.9396C14.4478 30.9396 14.6393 30.0259 14.6393 29.3638C14.6393 28.6976 14.4478 27.7835 13.404 27.7835C12.3606 27.7835 12.1605 28.6874 12.1605 29.3517Z" fill="#BFDF14"/>
<path d="M21.1025 26.77V31.953H19.752V27.8607H18.3069V29.4589C18.3069 31.4411 17.7137 32.0664 16.7649 32.0664C16.5289 32.0664 16.1431 32.0281 15.9434 31.953V30.9396C15.9713 30.9596 16.1431 30.9782 16.3429 30.9782C16.7486 30.9782 16.9585 30.7769 16.9585 29.1988V26.77H21.1025Z" fill="#BFDF14"/>
<path d="M23.1427 28.7364L24.8442 26.7705H26.5015L24.6908 28.7729L26.55 31.9531H24.9309L23.7058 29.7272L23.1427 30.3163V31.9531H21.7922V26.7705H23.1427V28.7364Z" fill="#BFDF14"/>
<path d="M31.4907 29.3517C31.4907 31.2198 30.2475 32.0891 28.8687 32.0891C27.4899 32.0891 26.2365 31.2326 26.2365 29.3638C26.2365 27.4935 27.4899 26.6358 28.8687 26.6358C30.2475 26.6358 31.4907 27.4832 31.4907 29.3517ZM27.6255 29.3517C27.6255 30.0156 27.8253 30.9396 28.8687 30.9396C29.9078 30.9396 30.1061 30.0259 30.1061 29.3638C30.1061 28.6976 29.9078 27.7835 28.8687 27.7835C27.8253 27.7835 27.6255 28.6874 27.6255 29.3517Z" fill="#BFDF14"/>
<path d="M31.9289 26.7703H34.2544C35.4048 26.7703 36.2463 27.2438 36.2463 28.1091C36.2463 28.7059 35.8246 29.0896 35.2873 29.2257C35.8141 29.3523 36.3993 29.6908 36.3993 30.5382C36.3993 31.4983 35.677 31.9536 34.5103 31.9536H31.9289V26.7703ZM33.2769 28.8686H34.1572C34.6053 28.8686 34.9226 28.688 34.9226 28.2816C34.9226 27.8588 34.6173 27.7049 34.1673 27.7049H33.2769V28.8686ZM33.2769 31.0194H34.27C34.7688 31.0194 35.0777 30.8651 35.0777 30.3529C35.0777 29.9002 34.7525 29.6908 34.2544 29.6908H33.2769V31.0194Z" fill="#BFDF14"/>
<path d="M41.8042 29.3517C41.8042 31.2198 40.5628 32.0891 39.1822 32.0891C37.8052 32.0891 36.5479 31.2326 36.5479 29.3638C36.5479 27.4935 37.8052 26.6358 39.1822 26.6358C40.5628 26.6358 41.8042 27.4832 41.8042 29.3517ZM37.9368 29.3517C37.9368 30.0156 38.1402 30.9396 39.1822 30.9396C40.2256 30.9396 40.4156 30.0259 40.4156 29.3638C40.4156 28.6976 40.2256 27.7835 39.1822 27.7835C38.1402 27.7835 37.9368 28.6874 37.9368 29.3517Z" fill="#BFDF14"/>
<path d="M9.54066 23.606C10.6914 23.606 13.5252 23.4031 15.6429 21.8473V23.0274H19.9156L19.9199 17.8382L21.7041 15.98L25.5878 23.0274H30.7144L24.8308 12.9576L30.5614 6.61098H25.3133L19.9199 12.838V0.875706H15.6429V2.76825C14.3406 1.36124 12.2294 0.297144 8.93736 0.297144C1.81166 0.297144 0.473817 4.65897 0.473817 7.10053C0.473817 10.4555 2.2663 12.32 5.38864 13.0817L9.81547 14.1782C12.1503 14.759 13.8199 15.1854 13.8199 16.9244C13.8199 19.2438 11.3919 19.792 9.20783 19.792C5.20483 19.792 4.53881 17.4439 4.53881 16.1934H0.140625C0.140625 18.9388 1.53539 23.606 9.54066 23.606ZM12.4534 10.3968L7.08832 9.08245C6.17612 8.86941 4.75055 8.5017 4.75055 6.76529C4.75055 4.78118 6.84395 4.10922 8.60235 4.10922C12.605 4.10922 12.9704 6.46068 13.0894 7.46605H15.6429V11.5951C14.706 11.0447 13.6002 10.6872 12.4534 10.3968Z" fill="#BFDF14"/>
</g>
<defs>
<clipPath id="clip0_100_587">
<rect width="42" height="32" fill="white"/>
</clipPath>
</defs>
</svg>
