<svg width="188" height="33" viewBox="0 0 188 33" fill="none" xmlns="http://www.w3.org/2000/svg">
<g clip-path="url(#clip0_354_872)">
<path d="M39.915 9.13805H32.928L26.2749 16.4111V1.86496H20.8857V5.44189C20.7068 5.21535 20.528 4.9888 20.3134 4.76226C19.2088 3.68252 17.8899 2.8466 16.4419 2.30851C14.994 1.77041 13.4493 1.54213 11.9076 1.63842C10.4287 1.56532 8.953 1.83756 7.59749 2.43357C6.24199 3.02958 5.04385 3.933 4.09798 5.07227C3.33391 6.0079 2.77985 7.09681 2.47334 8.26525C2.16683 9.43369 2.11504 10.6544 2.32145 11.8446C3.57337 17.4484 8.77184 18.3427 12.5991 18.8434C15.6157 19.2369 18.5011 19.7854 18.4295 22.48C18.358 25.1746 15.2461 25.9377 13.1357 25.9377C7.75837 25.9377 7.57954 21.9673 7.57954 21.9673H1.78491C1.88134 24.1673 2.72213 26.2693 4.16953 27.9289C6.17261 30.1823 9.18914 31.3269 13.1357 31.3269C15.9653 31.3906 18.7209 30.4198 20.8857 28.5965V30.9812H26.2749V24.1135L28.1826 22.015L33.6315 30.9812H39.915L31.9861 17.8658L39.915 9.13805ZM7.72261 10.5569C7.24568 8.47036 9.32029 6.63419 12.0149 6.63419C14.3995 6.63419 16.8557 7.17073 17.7857 10.545H20.8857V15.6958C17.0107 12.5242 8.62876 14.5154 7.72261 10.5569Z" fill="#B1EC52"/>
<path d="M63.3086 14.885C63.1392 14.6003 62.9478 14.3291 62.7362 14.0742C62.4794 13.8047 62.1865 13.572 61.8659 13.3827C61.4926 13.1604 61.0917 12.9881 60.6736 12.87C60.1191 12.7374 59.5505 12.6734 58.9805 12.6792C58.6565 12.6854 58.3336 12.7173 58.0147 12.7746C57.6067 12.8711 57.2077 13.0027 56.8224 13.1681C56.4006 13.4006 56.0014 13.672 55.6301 13.9788C55.2203 14.3616 54.8813 14.8137 54.6286 15.3142C54.2833 15.9466 54.0303 16.6251 53.8774 17.3292C53.6827 18.2542 53.5908 19.1979 53.6032 20.1431C53.5868 21.2001 53.7111 22.2546 53.9728 23.2788C54.1691 24.1327 54.5251 24.9418 55.022 25.6634C55.4558 26.2793 56.0382 26.7756 56.7151 27.1062C57.3975 27.4558 58.1541 27.6358 58.9209 27.6308C59.7176 27.6554 60.5104 27.509 61.2459 27.2015C61.7974 26.9392 62.2918 26.5704 62.7005 26.1165C63.042 25.7252 63.3051 25.2718 63.4755 24.7811C63.6417 24.3924 63.785 23.9943 63.9047 23.5888H68.3997C68.2165 24.8422 67.8128 26.0532 67.2074 27.1658C66.6738 28.1161 65.9659 28.9574 65.1209 29.6457C64.3089 30.3082 63.3783 30.81 62.3786 31.1242C59.8982 31.8761 57.2355 31.7583 54.8313 30.7904C53.6215 30.2879 52.5442 29.5126 51.6836 28.525C50.808 27.4732 50.1513 26.2571 49.752 24.9481C49.286 23.4306 49.0607 21.8495 49.0843 20.2623C49.0762 19.0587 49.2082 17.8583 49.4778 16.6854C49.7019 15.6769 50.0587 14.7027 50.5389 13.7881C50.9716 12.987 51.5223 12.2554 52.1724 11.618C52.7604 11.0106 53.4404 10.4996 54.1874 10.1038C54.9156 9.71119 55.6881 9.40697 56.4886 9.19765C57.291 9.01816 58.1106 8.92624 58.9328 8.92345C59.9899 8.90624 61.0445 9.03054 62.0686 9.29306C62.9022 9.52029 63.7036 9.85282 64.4532 10.2827C65.1009 10.6713 65.6909 11.1489 66.2059 11.7015C66.6601 12.2022 67.0598 12.7498 67.3982 13.335C67.6753 13.8792 67.9066 14.4455 68.0897 15.0281C68.2376 15.5413 68.3296 16.0689 68.3639 16.6019H63.8332L63.6305 15.8746C63.5485 15.537 63.4409 15.2062 63.3086 14.885Z" fill="#B1EC52"/>
<path d="M80.4772 14.9202H86.0334L79.3803 21.5971L86.2957 30.9806H80.823L76.0538 24.1844L74.468 25.9371V31.0044H70.2949V14.9202H74.468V21.0129L80.4772 14.9202Z" fill="#B1EC52"/>
<path d="M86.1055 19.5347C86.4339 18.5248 86.9831 17.6006 87.7131 16.8293C88.4432 16.058 89.3358 15.4589 90.3263 15.0755C91.4081 14.6339 92.5678 14.4149 93.7362 14.4317C94.9281 14.4118 96.1119 14.6307 97.2178 15.0755C98.1918 15.4566 99.0678 16.0515 99.7813 16.8163C100.494 17.6097 101.049 18.5325 101.415 19.5347C102.13 21.7559 102.13 24.1455 101.415 26.3667C101.049 27.3689 100.494 28.2917 99.7813 29.0852C99.0582 29.8386 98.1848 30.4317 97.2178 30.8259C96.1119 31.2707 94.9281 31.4897 93.7362 31.4698C92.5678 31.4866 91.4081 31.2676 90.3263 30.8259C89.3533 30.4232 88.4698 29.8315 87.727 29.0852C86.9978 28.3058 86.4447 27.3786 86.1055 26.3667C85.3424 24.1533 85.3424 21.7481 86.1055 19.5347ZM90.0878 24.7332C90.1885 25.3089 90.4167 25.8547 90.7555 26.3309C91.0376 26.829 91.4497 27.2411 91.9478 27.5232C92.505 27.8196 93.1292 27.9675 93.7601 27.9524C94.4108 27.9746 95.056 27.8266 95.632 27.5232C96.1161 27.2593 96.5261 26.878 96.8244 26.4144C97.1367 25.9366 97.3515 25.4017 97.4563 24.8405C97.7106 23.6256 97.7106 22.3712 97.4563 21.1563C97.3515 20.5877 97.1368 20.045 96.8244 19.5586C96.5163 19.1001 96.1087 18.717 95.632 18.4378C95.0525 18.1473 94.4076 18.0118 93.7601 18.0444C93.1292 18.0293 92.505 18.1771 91.9478 18.4736C91.4655 18.7399 91.0561 19.1207 90.7555 19.5824C90.4227 20.0664 90.1953 20.6147 90.0878 21.192C89.9569 21.7876 89.885 22.3947 89.8732 23.0044C89.8867 23.5903 89.9586 24.1734 90.0878 24.7451V24.7332Z" fill="#B1EC52"/>
<path d="M109.809 18.3064L109.749 21.2872C109.689 22.9802 109.558 24.4587 109.415 25.7345C109.283 26.8197 109.007 27.8824 108.592 28.8941C108.258 29.6618 107.728 30.328 107.054 30.8256C106.314 31.2813 105.455 31.5055 104.586 31.4695C104.097 31.4695 103.704 31.4695 103.394 31.4099C103.092 31.3591 102.796 31.2751 102.512 31.1595V27.666L103.06 27.8449C103.31 27.86 103.561 27.86 103.811 27.8449C104.122 27.8596 104.425 27.7526 104.658 27.5468C104.96 27.2658 105.179 26.9068 105.29 26.5095C105.501 25.8215 105.644 25.1147 105.719 24.3991C105.802 23.4929 105.862 22.3483 105.898 20.9294L106.017 14.8606H118.942V30.921H114.804V18.3064H109.809Z" fill="#B1EC52"/>
<path d="M132.092 14.9202H137.648L131.007 21.5971L137.923 30.9806H132.486L127.776 24.1844L126.131 25.9371V31.0044H121.969V14.9202H126.131V21.0129L132.092 14.9202Z" fill="#B1EC52"/>
<path d="M137.732 19.5347C138.066 18.5259 138.619 17.6032 139.35 16.8324C140.082 16.0617 140.975 15.4618 141.965 15.0755C143.047 14.6339 144.206 14.4149 145.375 14.4317C146.563 14.4118 147.743 14.6307 148.844 15.0755C149.82 15.46 150.699 16.0543 151.42 16.8163C152.129 17.6107 152.679 18.5335 153.041 19.5347C153.773 21.7533 153.773 24.1481 153.041 26.3667C152.679 27.368 152.129 28.2907 151.42 29.0852C150.69 29.8362 149.813 30.4288 148.844 30.8259C147.743 31.2707 146.563 31.4897 145.375 31.4698C144.206 31.4866 143.047 31.2676 141.965 30.8259C140.992 30.4232 140.108 29.8315 139.366 29.0852C138.633 28.3065 138.076 27.3794 137.732 26.3667C136.969 24.1533 136.969 21.7481 137.732 19.5347ZM141.726 24.7332C141.828 25.3065 142.052 25.8513 142.382 26.3309C142.669 26.8255 143.08 27.2365 143.574 27.5232C144.131 27.8212 144.756 27.9691 145.387 27.9525C146.037 27.9729 146.682 27.8251 147.259 27.5232C147.743 27.2593 148.153 26.878 148.451 26.4144C148.763 25.9366 148.978 25.4017 149.083 24.8405C149.322 23.6241 149.322 22.3727 149.083 21.1563C148.978 20.5877 148.763 20.045 148.451 19.5586C148.143 19.1001 147.735 18.717 147.259 18.4378C146.679 18.1488 146.034 18.0134 145.387 18.0444C144.756 18.0277 144.131 18.1756 143.574 18.4736C143.095 18.7441 142.687 19.1241 142.382 19.5825C142.058 20.0697 141.835 20.617 141.726 21.192C141.595 21.7876 141.524 22.3947 141.512 23.0044C141.525 23.5903 141.597 24.1734 141.726 24.7451V24.7332Z" fill="#B1EC52"/>
<path d="M165.99 15.0991C166.623 15.2328 167.233 15.4577 167.802 15.7668C168.298 16.0978 168.707 16.5436 168.994 17.0664C169.317 17.7089 169.473 18.4224 169.447 19.141C169.46 19.5441 169.407 19.9467 169.292 20.3333C169.215 20.6623 169.069 20.9712 168.863 21.2394C168.709 21.4879 168.506 21.7028 168.267 21.8714C168.047 22.0555 167.802 22.208 167.54 22.3245C168.291 22.5574 168.942 23.0361 169.388 23.6837C169.818 24.3506 170.039 25.1316 170.02 25.9252C170.032 26.6264 169.906 27.3231 169.65 27.976C169.399 28.5747 169.02 29.1117 168.541 29.5498C168.033 30.0078 167.437 30.3567 166.789 30.5753C166.047 30.8211 165.269 30.9419 164.487 30.9329H155.497V14.9202H163.844C164.563 14.918 165.281 14.9779 165.99 15.0991ZM164.118 21.0606C164.379 20.9954 164.625 20.8822 164.845 20.7268C165.029 20.604 165.168 20.4238 165.239 20.2141C165.323 19.973 165.364 19.7185 165.358 19.4629C165.361 19.2348 165.32 19.0082 165.239 18.7952C165.149 18.5961 165.014 18.4206 164.845 18.2825C164.631 18.1317 164.394 18.0187 164.142 17.9487C163.779 17.8592 163.406 17.8191 163.033 17.8295H159.706V21.1798H162.914C163.314 21.2125 163.718 21.2085 164.118 21.1679V21.0606ZM164.392 27.7972C164.702 27.6769 164.988 27.5034 165.239 27.2845C165.42 27.1119 165.552 26.8936 165.62 26.6525C165.766 26.1025 165.745 25.5216 165.56 24.9833C165.477 24.7344 165.308 24.5232 165.084 24.3872C164.827 24.1945 164.521 24.0788 164.201 24.0533C163.775 23.986 163.345 23.9541 162.914 23.9579H159.706V27.976H162.914C163.41 28.0054 163.908 27.9612 164.392 27.8449V27.7972Z" fill="#B1EC52"/>
<path d="M171.761 19.5347C172.089 18.5248 172.639 17.6006 173.369 16.8293C174.099 16.058 174.991 15.4589 175.982 15.0755C177.064 14.6339 178.223 14.4149 179.392 14.4317C180.58 14.4118 181.76 14.6307 182.861 15.0755C183.839 15.4565 184.719 16.0512 185.437 16.8163C186.149 17.608 186.7 18.5315 187.058 19.5347C187.79 21.7533 187.79 24.1481 187.058 26.3667C186.7 27.3699 186.149 28.2934 185.437 29.0852C184.709 29.8389 183.832 30.4319 182.861 30.8259C181.76 31.2707 180.58 31.4897 179.392 31.4698C178.223 31.4866 177.064 31.2676 175.982 30.8259C175.009 30.4232 174.125 29.8315 173.382 29.0852C172.653 28.3058 172.1 27.3786 171.761 26.3667C170.982 24.156 170.982 21.7454 171.761 19.5347ZM175.743 24.7332C175.844 25.3089 176.072 25.8547 176.411 26.3309C176.693 26.829 177.105 27.2411 177.603 27.5232C178.16 27.8212 178.784 27.9691 179.416 27.9525C180.066 27.9746 180.711 27.8266 181.287 27.5232C181.772 27.2593 182.182 26.878 182.48 26.4144C182.792 25.9366 183.007 25.4017 183.112 24.8405C183.351 23.6241 183.351 22.3727 183.112 21.1563C183.007 20.5877 182.792 20.045 182.48 19.5586C182.172 19.1001 181.764 18.717 181.287 18.4378C180.708 18.1473 180.063 18.0118 179.416 18.0444C178.784 18.0277 178.16 18.1756 177.603 18.4736C177.121 18.7399 176.712 19.1207 176.411 19.5825C176.078 20.0664 175.851 20.6147 175.743 21.192C175.612 21.7876 175.54 22.3947 175.529 23.0044C175.542 23.5903 175.614 24.1734 175.743 24.7451V24.7332Z" fill="#B1EC52"/>
</g>
<defs>
<clipPath id="clip0_354_872">
<rect width="187.957" height="33" fill="white"/>
</clipPath>
</defs>
</svg>
