<svg width="159" height="34" viewBox="0 0 159 34" fill="none" xmlns="http://www.w3.org/2000/svg">
<path d="M0.924561 16.9924C0.924561 26.1555 8.39056 33.6178 17.5499 33.6178C26.7092 33.6178 34.1752 26.1555 34.1752 16.9924C34.1752 7.82922 26.7246 0.366943 17.5499 0.366943C8.37517 0.366943 0.924561 7.82922 0.924561 16.9924ZM1.49413 16.9924C1.49413 8.13568 8.69844 0.933893 17.5499 0.933893C26.4013 0.933893 33.6056 8.13568 33.6056 16.9924C33.6056 25.849 26.4167 33.0508 17.5499 33.0508C8.68305 33.0508 1.49413 25.849 1.49413 16.9924ZM6.11228 12.4414C10.361 9.65266 15.0561 8.02842 23.0301 9.40749C23.4765 9.147 23.7074 8.91715 23.8306 8.39617C21.8448 7.67599 19.6896 7.43083 16.888 7.4768C14.3788 7.55341 9.86837 8.47279 7.45154 9.89782L8.19044 8.97845C9.88376 7.99778 14.271 6.68 17.5499 6.60339C19.8744 6.55742 21.0751 6.69532 23.8306 7.43083C23.5843 6.95581 23.0147 6.72597 22.1834 6.3429C19.5049 5.14771 14.5173 5.04045 10.4379 6.83323C10.9767 6.46548 11.5309 6.1437 12.1159 5.86789C13.4705 5.25497 15.6718 4.65737 18.4273 4.70334C20.6287 4.73399 23.2456 5.50013 24.8466 7.09372C25.0775 7.35421 25.2468 7.67599 25.3392 8.0131C26.6015 8.65666 27.3404 9.25426 27.756 9.97444C27.9407 10.3575 27.9869 10.7712 27.9253 11.185C28.341 11.4148 28.695 11.7366 28.9721 12.1197C29.1568 12.3955 29.28 12.7019 29.3416 13.039C29.4031 13.4374 29.4339 13.8818 29.0183 14.4028C29.4493 14.6173 29.788 15.2149 29.8495 15.4754C30.0497 16.4254 29.4339 17.3601 28.618 18.0803C27.6944 18.8924 25.6316 19.8731 23.9537 20.3021C20.6287 21.1449 17.6884 21.4973 15.3486 21.9263C16.9187 22.3247 18.5351 22.5239 20.1514 22.5239C25.1236 22.5239 29.5109 20.1795 29.5109 20.1795C29.5109 20.1795 29.4185 20.486 29.3108 20.7618C26.155 22.6618 21.1366 23.474 18.9969 23.382C17.0265 23.3054 15.0715 22.9836 13.1934 22.4014C12.6393 22.5393 12.1005 22.7231 11.5771 22.953C14.3018 24.1941 16.3646 24.47 18.7044 24.6385C21.0751 24.8071 25.0159 24.2401 28.341 23.0296C28.187 23.1828 28.11 23.428 27.9561 23.5659C26.2474 24.4546 22.6606 25.3587 20.8442 25.4353C19.0277 25.5119 16.8418 25.4353 14.9483 25.0829C13.3012 24.7611 11.9619 24.2401 10.5611 23.6272C10.3302 23.7957 10.1762 24.0409 10.1301 24.332C15.5949 27.1974 20.7364 27.2587 26.5707 25.4353L26.0319 25.9563C19.6127 28.5612 14.5943 27.5499 10.6996 25.6651C10.5611 25.6039 10.4379 25.5426 10.2994 25.4813C10.6535 26.1095 13.6245 28.27 16.9495 28.5459C19.2432 28.7297 22.0295 28.3467 23.692 27.6878L22.7222 28.1934C20.875 29.0515 18.843 29.4346 16.8264 29.2814C12.8702 29.0209 10.6381 27.2587 9.63746 26.3394C9.17565 25.9103 8.96013 25.4047 8.82159 24.8071C7.92875 24.332 7.35918 23.857 6.89736 23.1215C6.62027 22.6925 6.68185 22.2175 6.74342 21.8191C6.75882 21.6965 6.78961 21.5739 6.85118 21.4667C6.42015 21.1602 5.98913 20.8231 5.8044 20.486C5.41956 19.7811 5.65046 19.1682 5.92755 18.7085C5.69664 18.4787 5.51192 18.2029 5.37337 17.8964C5.28101 17.5746 5.25022 17.2528 5.28101 16.9157C5.38877 16.3181 5.66586 15.7512 6.08149 15.3068C6.92815 14.3108 8.28281 13.5294 10.6227 12.7632C12.901 12.0124 13.8246 11.8898 15.5333 11.4914C17.5345 11.0317 19.9513 10.8785 21.9525 10.1736C16.3492 9.19297 10.5303 10.0817 5.77361 13.3455L6.11228 12.4414ZM25.1852 8.97845C25.1236 9.25426 24.8158 9.57604 24.6156 9.79056C25.2314 9.95911 25.8318 10.1736 26.4321 10.4035C26.3705 9.86718 25.7394 9.33087 25.1852 8.97845ZM7.92875 20.1795C7.62087 20.011 7.313 19.8271 7.02051 19.6279C6.85118 19.9803 7.15906 20.3787 7.49772 20.5626C7.62087 20.4247 7.7902 20.3021 7.92875 20.1795ZM26.817 12.8552C27.2018 13.0237 27.5867 13.2229 27.9407 13.4527C28.2024 12.9624 28.0331 12.656 27.5097 12.2116C27.3096 12.4414 27.0787 12.656 26.817 12.8552ZM25.6162 13.5907C24.8004 13.9737 23.6304 14.3568 21.9371 14.7858C20.5671 15.123 17.1958 15.6133 13.5937 16.3948C12.4391 16.6399 9.36037 17.3754 7.83639 18.6626C8.26741 18.9997 8.52911 19.0916 8.99092 19.3521C9.62207 18.9537 10.4687 18.5706 11.7464 18.2335C13.9631 17.6512 15.6103 17.3907 17.6115 17.069C19.6127 16.7472 23.3072 15.981 25.3699 15.2455C26.0011 15.031 26.5861 14.7246 27.1248 14.3262C27.0017 14.1729 25.6778 13.5294 25.6162 13.5907ZM10.0223 22.2175C10.3764 22.0183 10.7304 21.8344 11.1153 21.6965C10.5303 21.4513 9.94534 21.1908 9.34498 20.915C9.09868 21.0683 8.85238 21.2521 8.63686 21.4513C9.09868 21.7118 9.56049 21.9723 10.0223 22.2175ZM8.12887 22.4014C8.11347 22.7691 8.34438 23.1062 8.83698 23.5046C8.89856 23.3054 9.00632 23.1215 9.12947 22.9683C8.7908 22.7844 8.45214 22.6006 8.12887 22.4014ZM10.9152 15.552C14.9791 14.3568 19.2278 13.9891 23.5381 12.8552C21.8602 12.3955 20.9365 12.2116 19.1508 12.4108C16.4877 12.7326 13.8554 13.2535 11.2846 14.0044C10.3302 14.2955 5.3118 15.7205 6.75882 17.7125C6.75882 17.7279 7.62087 16.5173 10.9152 15.552ZM26.1396 11.3995C25.3699 11.0624 24.5849 10.7866 23.769 10.572C23.3226 10.9245 22.8146 11.2156 22.2604 11.4148C23.3534 11.614 24.1692 11.9051 25.0929 12.1809C25.2776 12.2729 26.0165 11.568 26.1396 11.3995ZM28.1408 15.3068C28.0177 15.4141 27.8791 15.5213 27.7252 15.6286C26.8016 16.3335 25.3546 16.9004 23.338 17.4367C19.1662 18.5553 16.1337 18.7238 12.6854 19.5666C11.9927 19.7352 11.3154 19.9497 10.6688 20.2255C11.3154 20.5473 12.0081 20.8537 12.7162 21.1295C14.0555 20.7312 15.4255 20.4094 16.811 20.1948C17.5807 20.0569 19.9667 19.6432 21.6754 19.2755C24.8004 18.6166 29.3416 17.1762 28.1408 15.3068Z" fill="white"/>
<path d="M50.1088 24.2555H53.5416L53.9572 21.7425H56.3125L56.7281 24.2555H60.1609L57.2669 9.69865H53.0182L50.1088 24.2555ZM55.1272 14.0963L55.7583 18.54H54.496L55.1272 14.0963ZM63.3783 15.5061C63.917 15.5061 64.933 15.1536 64.933 14.081C64.933 12.8092 63.7785 12.7326 63.4398 12.7326C62.7933 12.7326 62.1621 12.8705 61.5772 13.1463L61.5464 10.0051C62.5008 9.74462 63.5014 9.62204 64.4866 9.62204C67.2421 9.62204 68.489 11.5527 68.489 13.4375C68.489 15.2762 67.4114 16.3948 66.3954 16.8238V16.9617C67.3806 17.2682 68.7045 18.2182 68.7045 20.4554C68.7045 23.1982 66.7803 24.7151 64.3327 24.7151C63.0088 24.7151 62.1621 24.516 61.1308 23.9643L61.1923 20.9457C61.9004 21.2675 62.6547 21.4054 63.4244 21.3901C64.502 21.3901 64.9484 20.5933 64.9484 20.011C64.9484 19.1989 64.425 18.6473 63.2705 18.6473H61.8851V15.5061H63.3783ZM70.3209 9.69865H79.5418V24.2555H76.1705V13.2076H73.7075V24.2555H70.3363V9.69865H70.3209ZM81.4506 24.2555H84.8372V19.4594H85.9764C89.3322 19.4594 90.3482 16.4561 90.3482 14.5407C90.3482 12.6253 89.1629 9.69865 85.961 9.69865H81.4506V24.2555ZM84.8372 12.9012H85.6377C86.4074 12.9012 86.8846 13.3608 86.8846 14.5714C86.8846 16.1496 86.0687 16.2569 85.6377 16.2569H84.8218L84.8372 12.9012ZM96.6135 24.4393C100.616 24.4393 101.971 20.7005 101.971 16.9617C101.971 13.2229 100.616 9.48413 96.6135 9.48413C92.6111 9.48413 91.2565 13.2229 91.2565 16.9617C91.2565 20.7005 92.6111 24.4393 96.6135 24.4393ZM96.6135 20.9151C95.4282 20.9151 94.8124 19.5207 94.8124 16.9617C94.8124 14.4028 95.4282 13.0084 96.6135 13.0084C97.7988 13.0084 98.4146 14.4028 98.4146 16.9617C98.4146 19.5207 97.7988 20.9151 96.6135 20.9151ZM43.5664 9.71398H50.4936V13.3455H47.0146V24.2708H43.5664V9.71398ZM103.572 9.71398H106.435L108.975 13.1463L111.53 9.71398H114.393V24.2708H111.022V15.3835L108.99 17.9271L106.958 15.3835V24.2708H103.587L103.572 9.71398Z" fill="white"/>
<path d="M116.671 24.2553H120.705C121.582 24.2553 125.23 23.8875 125.246 19.4899C125.246 15.7664 122.413 15.1228 120.581 15.1228H119.981V13.1921H124.445V9.69849H116.671V24.2553ZM119.981 21.3439V18.0342H120.474C120.874 18.0342 121.936 18.0495 121.936 19.5511C121.936 21.0834 120.874 21.3439 120.474 21.3439H119.981ZM137.391 9.69849H140.701V14.9389H143.056V9.69849H146.366V24.2553H143.056V18.4326H140.701V24.2553H137.391V9.69849ZM148.583 9.69849H151.892V14.9389H152.616L154.509 9.69849H158.096L155.51 16.6091L158.45 24.2553H154.571L152.678 18.4019H151.892V24.2553H148.598L148.583 9.69849ZM125.892 24.2859H129.325L129.741 21.773H132.096L132.512 24.2859H135.944L133.05 9.72913H128.786L125.892 24.2859ZM130.926 14.1268L131.573 18.5705H130.295L130.926 14.1268Z" fill="#73B0FF"/>
</svg>
