<svg width="128" height="36" viewBox="0 0 128 36" fill="none" xmlns="http://www.w3.org/2000/svg">
<g clip-path="url(#clip0_117_328)">
<path d="M36.0233 0.0532227H9.00455C4.03228 0.0532227 0 4.08547 0 9.05774V27.072C0 32.0442 4.03228 36.0765 9.00455 36.0765H27.0187C31.991 36.0765 36.0233 32.0442 36.0233 27.072V0.0532227ZM34.8418 1.23464V27.072C34.8418 31.3867 31.3335 34.8951 27.0187 34.8951H9.00455C4.68977 34.8951 1.18139 31.3867 1.18139 27.072V9.05774C1.18139 4.74296 4.68977 1.23464 9.00455 1.23464H34.8418Z" fill="white"/>
<path d="M17.9886 17.6256C15.5949 15.6583 10.4069 16.8911 9.84698 14.4409C9.55419 13.1516 10.8384 12.0113 12.5026 12.0113C14.0025 12.0113 15.5024 12.3452 16.0726 14.4358H17.9938V17.6256H17.9886ZM29.7669 13.5625H25.4419L21.3274 18.0674V9.06283H17.9886V11.2459C17.8807 11.1072 17.7626 10.9634 17.6342 10.8298C16.4219 9.54567 14.6703 8.89331 12.4359 8.89331C9.847 8.89331 8.3779 10.0491 7.60227 11.0199C6.63658 12.227 6.2051 13.8707 6.50302 15.2114C7.27865 18.6837 10.4942 19.2334 12.8622 19.5416C14.7319 19.783 16.5144 20.122 16.4681 21.7863C16.4168 23.5122 14.47 23.9386 13.1909 23.9386C9.8624 23.9386 9.74941 21.4781 9.74941 21.4781H6.16919C6.22056 22.4027 6.50306 23.8872 7.63826 25.1559C8.88647 26.5531 10.751 27.2568 13.1909 27.2568C15.0607 27.2568 16.7661 26.6456 17.9886 25.5669V27.0565H21.3274V22.8085L22.5088 21.514L25.8836 27.0565H29.7669L24.8614 18.9406L29.772 13.5625H29.7669Z" fill="white"/>
<path d="M45.7162 17.3844C45.8858 17.0505 46.1066 16.7679 46.3326 16.5625C46.574 16.357 46.8206 16.1875 47.062 16.0591C47.3035 15.9461 47.55 15.8742 47.7709 15.8177C47.9969 15.7817 48.2023 15.7612 48.3667 15.7612C48.7776 15.7612 49.1167 15.7971 49.4146 15.8742C49.7125 15.9666 49.9745 16.0591 50.18 16.1927C50.406 16.3211 50.5704 16.47 50.7245 16.6241C50.8529 16.7936 50.9864 16.958 51.0789 17.1275C51.1713 17.3124 51.2484 17.4614 51.3049 17.6309L51.4333 18.0778H54.2379C54.2174 17.7799 54.1609 17.4614 54.0684 17.107C53.9554 16.7731 53.827 16.4135 53.6369 16.0591C53.452 15.7252 53.19 15.3862 52.8921 15.0523C52.5942 14.7184 52.2398 14.4359 51.8083 14.174C51.3768 13.912 50.8734 13.7271 50.3135 13.5576C49.7536 13.4086 49.1013 13.3315 48.3719 13.3315C47.8685 13.3315 47.3651 13.3881 46.8566 13.5011C46.3532 13.6295 45.8857 13.8195 45.4337 14.0609C44.9663 14.3024 44.5554 14.6208 44.1804 14.9958C43.79 15.3862 43.4509 15.8177 43.1684 16.3416C42.8911 16.8655 42.6651 17.4614 42.5161 18.1343C42.3466 18.8072 42.2747 19.552 42.2747 20.379C42.2747 21.4423 42.4082 22.4131 42.6856 23.2761C42.9681 24.1544 43.3585 24.8993 43.8824 25.5208C44.4064 26.1166 45.0587 26.6046 45.8241 26.9231C46.5895 27.257 47.4884 27.4265 48.4798 27.4265C49.1886 27.4265 49.8615 27.334 50.4984 27.1286C51.1354 26.9231 51.6953 26.6252 52.1987 26.2143C52.7021 25.8033 53.1336 25.2999 53.488 24.6835C53.8424 24.0671 54.0838 23.3377 54.2379 22.4953H51.4538C51.3973 22.7008 51.3049 22.9627 51.1919 23.2453C51.0994 23.5278 50.9299 23.8052 50.7039 24.0671C50.4779 24.3291 50.18 24.5551 49.805 24.74C49.43 24.9095 48.9626 25.002 48.3667 25.002C47.8633 25.002 47.3959 24.889 47.0004 24.6835C46.5895 24.478 46.235 24.1801 45.9525 23.7846C45.67 23.3942 45.4491 22.9063 45.3001 22.3258C45.1512 21.7454 45.0742 21.1135 45.0742 20.3841C45.0742 19.7112 45.1306 19.1308 45.2437 18.648C45.3567 18.16 45.5056 17.749 45.7111 17.3946" fill="white"/>
<path d="M65.1377 17.1431H61.7013L57.9824 20.9185V17.1431H55.4038V27.0825H57.9824V23.944L59.0251 22.8756L61.9427 27.0825H65.3073L61.0284 21.2729L65.1377 17.1431Z" fill="white"/>
<path d="M72.1904 23.2506C72.1133 23.6256 71.985 23.944 71.8001 24.2214C71.6151 24.5039 71.3685 24.7454 71.0706 24.9149C70.7727 25.0844 70.3772 25.1768 69.9097 25.1768C69.4423 25.1768 69.0878 25.0844 68.7899 24.9149C68.492 24.7454 68.2506 24.5039 68.0606 24.206C67.8551 23.9235 67.7215 23.5896 67.6496 23.2146C67.5726 22.8602 67.5212 22.4852 67.5212 22.1103C67.5212 21.7353 67.5777 21.3603 67.6496 20.9905C67.7267 20.6155 67.8551 20.297 68.0606 19.9991C68.2455 19.7166 68.492 19.4752 68.7899 19.3057C69.0878 19.1361 69.4629 19.0437 69.9097 19.0437C70.3566 19.0437 70.7676 19.1207 71.0706 19.2851C71.3685 19.47 71.61 19.696 71.8001 19.9786C71.985 20.2559 72.1185 20.5949 72.1904 20.9699C72.2674 21.3449 72.3034 21.7199 72.3034 22.1103C72.3034 22.5007 72.2674 22.8756 72.1904 23.2506ZM73.6492 18.3194C73.2178 17.852 72.6938 17.4975 72.062 17.2356C71.425 16.9736 70.7162 16.8452 69.9149 16.8452C69.1136 16.8452 68.4407 16.9787 67.8037 17.2356C67.1668 17.4975 66.6428 17.852 66.196 18.3194C65.7491 18.7869 65.4101 19.3467 65.1841 19.9991C64.958 20.636 64.8296 21.3449 64.8296 22.1103C64.8296 22.8756 64.9632 23.5845 65.1841 24.2214C65.4101 24.8738 65.7439 25.4337 66.196 25.9011C66.6428 26.348 67.1668 26.723 67.8037 26.9849C68.4407 27.2469 69.129 27.3753 69.9149 27.3753C70.7008 27.3753 71.4302 27.2418 72.062 26.9849C72.6989 26.723 73.2229 26.348 73.6492 25.9011C74.0807 25.4337 74.4146 24.8738 74.656 24.2214C74.882 23.5845 74.9899 22.8756 74.9899 22.1103C74.9899 21.3449 74.8769 20.636 74.656 19.9991C74.4146 19.3467 74.0756 18.7869 73.6492 18.3194Z" fill="white"/>
<path d="M77.4041 20.898C77.3835 21.7763 77.3476 22.4852 77.2911 23.0451C77.214 23.605 77.1421 24.0365 77.0291 24.3549C76.9161 24.6734 76.7877 24.8789 76.6387 24.9919C76.4897 25.1203 76.3202 25.1768 76.1148 25.1768C75.9298 25.1768 75.7758 25.1562 75.6474 25.1408C75.519 25.1049 75.4059 25.0638 75.3135 25.0278V27.1955C75.4624 27.252 75.6319 27.3085 75.8528 27.3445C76.0788 27.365 76.3202 27.3804 76.6181 27.3804C77.2345 27.3804 77.7585 27.2469 78.1489 26.99C78.5393 26.7075 78.8578 26.3171 79.1043 25.7932C79.3303 25.2693 79.4947 24.6169 79.6077 23.831C79.7002 23.0451 79.7772 22.1308 79.8132 21.0829L79.8491 19.2337H82.9157V27.0825H85.4738V17.1431H77.476L77.3989 20.898H77.4041Z" fill="white"/>
<path d="M97.0926 17.1431H93.6562L89.9372 20.9185V17.1431H87.3586V27.0825H89.9372V23.944L90.9851 22.8756L93.8976 27.0825H97.2621L92.9833 21.2729L97.0926 17.1431Z" fill="white"/>
<path d="M104.146 23.2506C104.068 23.6256 103.94 23.944 103.755 24.2214C103.57 24.5039 103.324 24.7454 103.026 24.9149C102.728 25.0844 102.332 25.1768 101.865 25.1768C101.397 25.1768 101.043 25.0844 100.745 24.9149C100.447 24.7454 100.206 24.5039 100.016 24.206C99.8102 23.9235 99.6766 23.5896 99.6047 23.2146C99.5276 22.8602 99.4763 22.4852 99.4763 22.1103C99.4763 21.7353 99.5328 21.3603 99.6047 20.9905C99.6817 20.6155 99.8102 20.297 100.016 19.9991C100.201 19.7166 100.447 19.4752 100.745 19.3057C101.043 19.1361 101.418 19.0437 101.865 19.0437C102.312 19.0437 102.723 19.1207 103.026 19.2851C103.324 19.47 103.565 19.696 103.755 19.9786C103.94 20.2559 104.074 20.5949 104.146 20.9699C104.223 21.3449 104.259 21.7199 104.259 22.1103C104.259 22.5007 104.223 22.8756 104.146 23.2506ZM105.604 18.3194C105.173 17.852 104.649 17.4975 104.017 17.2356C103.38 16.9736 102.671 16.8452 101.87 16.8452C101.069 16.8452 100.396 16.9787 99.7588 17.2356C99.1219 17.4975 98.5979 17.852 98.151 18.3194C97.7041 18.7869 97.3651 19.3467 97.1391 19.9991C96.9131 20.636 96.7847 21.3449 96.7847 22.1103C96.7847 22.8756 96.9131 23.5845 97.1391 24.2214C97.3651 24.8738 97.699 25.4337 98.151 25.9011C98.5979 26.348 99.1219 26.723 99.7588 26.9849C100.396 27.2469 101.084 27.3753 101.87 27.3753C102.656 27.3753 103.385 27.2418 104.017 26.9849C104.654 26.723 105.178 26.348 105.604 25.9011C106.036 25.4337 106.37 24.8738 106.611 24.2214C106.837 23.5845 106.945 22.8756 106.945 22.1103C106.945 21.3449 106.832 20.636 106.611 19.9991C106.37 19.3467 106.031 18.7869 105.604 18.3194Z" fill="white"/>
<path d="M114.398 24.4268C114.362 24.5758 114.27 24.7093 114.157 24.8172C114.028 24.9508 113.859 25.0432 113.633 25.1357C113.407 25.2127 113.094 25.2487 112.719 25.2487H110.736V22.7626H112.719C113.037 22.7626 113.299 22.7831 113.52 22.8191C113.746 22.855 113.931 22.9115 114.064 23.0245C114.213 23.117 114.306 23.2505 114.362 23.3995C114.434 23.569 114.455 23.7745 114.455 24.0159C114.455 24.1495 114.434 24.2779 114.398 24.4268ZM110.736 18.9717H112.79C113.068 18.9717 113.294 18.9923 113.484 19.0488C113.669 19.1053 113.823 19.1772 113.915 19.2543C114.028 19.3467 114.121 19.4597 114.157 19.5727C114.213 19.7011 114.234 19.8347 114.234 19.9836C114.234 20.1532 114.213 20.3175 114.157 20.4511C114.121 20.5846 114.028 20.6925 113.915 20.7695C113.802 20.862 113.653 20.9185 113.469 20.975C113.263 21.011 113.022 21.0521 112.724 21.0521H110.741V18.9769L110.736 18.9717ZM115.616 21.7558C115.785 21.6787 115.914 21.5863 116.063 21.4733C116.196 21.3808 116.324 21.2473 116.437 21.0829C116.55 20.9339 116.643 20.749 116.699 20.523C116.771 20.3175 116.792 20.0556 116.792 19.7576C116.792 19.2337 116.699 18.8022 116.509 18.4683C116.324 18.1344 116.063 17.8725 115.744 17.667C115.41 17.4821 115.035 17.3485 114.624 17.2561C114.193 17.179 113.766 17.1431 113.299 17.1431H108.162V27.0825H113.73C114.254 27.0825 114.722 27.0054 115.148 26.8565C115.58 26.7075 115.934 26.5021 116.232 26.2195C116.53 25.9576 116.756 25.6237 116.925 25.2487C117.074 24.8737 117.151 24.4474 117.151 23.9799C117.151 23.4355 117.018 22.9886 116.761 22.5982C116.499 22.2078 116.124 21.9253 115.621 21.7558" fill="white"/>
<path d="M125.2 23.2506C125.123 23.6256 124.995 23.944 124.81 24.2214C124.625 24.5039 124.379 24.7454 124.081 24.9149C123.783 25.0844 123.387 25.1768 122.92 25.1768C122.452 25.1768 122.098 25.0844 121.8 24.9149C121.502 24.7454 121.261 24.5039 121.071 24.206C120.865 23.9286 120.732 23.5896 120.66 23.2146C120.583 22.8602 120.526 22.4852 120.526 22.1103C120.526 21.7353 120.583 21.3603 120.66 20.9905C120.737 20.6155 120.865 20.297 121.071 19.9991C121.255 19.7166 121.502 19.4752 121.8 19.3057C122.098 19.1361 122.473 19.0437 122.92 19.0437C123.367 19.0437 123.778 19.1207 124.081 19.2851C124.379 19.47 124.625 19.696 124.81 19.9786C124.995 20.2559 125.129 20.5949 125.2 20.9699C125.277 21.3449 125.313 21.7148 125.313 22.1103C125.313 22.5058 125.277 22.8756 125.2 23.2506ZM127.666 19.9991C127.425 19.3467 127.086 18.7869 126.654 18.3194C126.223 17.852 125.704 17.4975 125.067 17.2356C124.43 16.9736 123.721 16.8452 122.92 16.8452C122.118 16.8452 121.446 16.9787 120.809 17.2356C120.172 17.4975 119.648 17.852 119.201 18.3194C118.754 18.7869 118.415 19.3467 118.194 19.9991C117.968 20.636 117.84 21.3449 117.84 22.1103C117.84 22.8756 117.973 23.5845 118.194 24.2214C118.42 24.8738 118.754 25.4337 119.201 25.9011C119.648 26.348 120.172 26.723 120.809 26.9849C121.446 27.2469 122.134 27.3753 122.92 27.3753C123.706 27.3753 124.435 27.2418 125.067 26.9849C125.704 26.723 126.228 26.348 126.654 25.9011C127.086 25.4337 127.419 24.8738 127.666 24.2214C127.892 23.5845 128 22.8756 128 22.1103C128 21.3449 127.887 20.636 127.666 19.9991Z" fill="white"/>
</g>
<defs>
<clipPath id="clip0_117_328">
<rect width="128" height="36" fill="white"/>
</clipPath>
</defs>
</svg>
