<svg width="115" height="34" viewBox="0 0 115 34" fill="none" xmlns="http://www.w3.org/2000/svg">
<g clip-path="url(#clip0_360_968)">
<path d="M32.742 0.416016H8.57822C4.13135 0.416016 0.525146 4.14205 0.525146 8.73673V25.3829C0.525146 29.9776 4.13135 33.7037 8.57822 33.7037H24.6889C29.1358 33.7037 32.742 29.9776 32.742 25.3829V0.416016ZM31.6854 1.50772V25.3829C31.6854 29.3701 28.5478 32.6119 24.6889 32.6119H8.57822C4.71937 32.6119 1.5817 29.3701 1.5817 25.3829V8.73673C1.5817 4.74961 4.71937 1.50772 8.57822 1.50772H31.6854Z" fill="white"/>
<path d="M16.6125 16.6531C14.4718 14.8352 9.8319 15.9744 9.33116 13.7103C9.06931 12.5189 10.2178 11.4652 11.7062 11.4652C13.0476 11.4652 14.389 11.7737 14.8989 13.7055H16.6171V16.6531H16.6125ZM27.1462 12.8986H23.2782L19.5985 17.0614V8.74063H16.6125V10.7579C16.516 10.6298 16.4103 10.4969 16.2955 10.3734C15.2113 9.18681 13.6448 8.58398 11.6465 8.58398C9.33118 8.58398 8.01732 9.65197 7.32364 10.5491C6.46 11.6645 6.0741 13.1834 6.34055 14.4223C7.03422 17.6309 9.90999 18.1388 12.0278 18.4236C13.6999 18.6467 15.294 18.96 15.2527 20.4979C15.2067 22.0927 13.4657 22.4867 12.3218 22.4867C9.34495 22.4867 9.24391 20.2131 9.24391 20.2131H6.04199C6.08793 21.0675 6.34059 22.4392 7.35583 23.6116C8.47214 24.9027 10.1397 25.553 12.3218 25.553C13.9939 25.553 15.5192 24.9881 16.6125 23.9913V25.3679H19.5985V21.4424L20.6551 20.2463L23.6733 25.3679H27.1462L22.7591 17.8683L27.1508 12.8986H27.1462Z" fill="white"/>
<path d="M41.4102 16.4306C41.5618 16.1221 41.7593 15.861 41.9614 15.6711C42.1774 15.4813 42.3979 15.3246 42.6138 15.206C42.8297 15.1015 43.0502 15.0351 43.2478 14.9829C43.4499 14.9497 43.6336 14.9307 43.7806 14.9307C44.1481 14.9307 44.4513 14.9639 44.7178 15.0351C44.9842 15.1205 45.2185 15.206 45.4023 15.3294C45.6044 15.4481 45.7514 15.5857 45.8892 15.7281C46.0041 15.8847 46.1235 16.0366 46.2062 16.1933C46.2889 16.3641 46.3578 16.5018 46.4083 16.6584L46.5232 17.0714H49.0314C49.013 16.7961 48.9625 16.5018 48.8798 16.1743C48.7788 15.8657 48.6639 15.5335 48.4939 15.206C48.3285 14.8974 48.0943 14.5842 47.8278 14.2756C47.5614 13.9671 47.2444 13.7061 46.8585 13.464C46.4726 13.2219 46.0224 13.051 45.5217 12.8944C45.021 12.7567 44.4375 12.6855 43.7852 12.6855C43.335 12.6855 42.8848 12.7378 42.43 12.8422C41.9798 12.9609 41.5618 13.1365 41.1575 13.3596C40.7395 13.5826 40.372 13.8769 40.0366 14.2234C39.6875 14.5842 39.3843 14.9829 39.1316 15.467C38.8835 15.9512 38.6815 16.5018 38.5482 17.1236C38.3966 17.7454 38.3323 18.4337 38.3323 19.1978C38.3323 20.1804 38.4517 21.0775 38.6998 21.8749C38.9525 22.6866 39.3016 23.3748 39.7702 23.9491C40.2387 24.4997 40.8222 24.9507 41.5067 25.245C42.1911 25.5535 42.9951 25.7101 43.8817 25.7101C44.5157 25.7101 45.1174 25.6247 45.6871 25.4348C46.2567 25.245 46.7575 24.9697 47.2077 24.5899C47.6579 24.2102 48.0438 23.745 48.3607 23.1754C48.6777 22.6059 48.8936 21.9319 49.0314 21.1534H46.5415C46.491 21.3433 46.4083 21.5854 46.3072 21.8464C46.2245 22.1075 46.073 22.3638 45.8708 22.6059C45.6687 22.848 45.4023 23.0568 45.0669 23.2277C44.7316 23.3843 44.3135 23.4698 43.7806 23.4698C43.3304 23.4698 42.9124 23.3653 42.5587 23.1754C42.1912 22.9856 41.8742 22.7103 41.6215 22.3448C41.3688 21.9841 41.1713 21.5331 41.0381 20.9968C40.9049 20.4604 40.836 19.8766 40.836 19.2026C40.836 18.5808 40.8865 18.0444 40.9875 17.5982C41.0886 17.1473 41.2219 16.7676 41.4056 16.4401" fill="white"/>
<path d="M58.7806 16.2075H55.7073L52.3813 19.6963V16.2075H50.0752V25.3921H52.3813V22.492L53.3138 21.5047L55.9232 25.3921H58.9322L55.1055 20.0238L58.7806 16.2075Z" fill="white"/>
<path d="M65.0874 21.8523C65.0185 22.1988 64.9037 22.4931 64.7383 22.7494C64.5729 23.0105 64.3524 23.2335 64.086 23.3902C63.8195 23.5468 63.4658 23.6323 63.0477 23.6323C62.6297 23.6323 62.3127 23.5468 62.0463 23.3902C61.7798 23.2335 61.5639 23.0105 61.394 22.7352C61.2102 22.4741 61.0907 22.1656 61.0264 21.8191C60.9575 21.4916 60.9116 21.1451 60.9116 20.7986C60.9116 20.4521 60.9621 20.1056 61.0264 19.7638C61.0953 19.4173 61.2102 19.123 61.394 18.8477C61.5593 18.5867 61.7798 18.3636 62.0463 18.2069C62.3127 18.0503 62.6481 17.9649 63.0477 17.9649C63.4474 17.9649 63.8149 18.0361 64.086 18.188C64.3524 18.3588 64.5683 18.5677 64.7383 18.8287C64.9037 19.0851 65.0231 19.3983 65.0874 19.7448C65.1563 20.0913 65.1885 20.4378 65.1885 20.7986C65.1885 21.1593 65.1563 21.5058 65.0874 21.8523ZM66.3921 17.2956C66.0062 16.8637 65.5376 16.5361 64.9725 16.2941C64.4029 16.052 63.769 15.9333 63.0523 15.9333C62.3357 15.9333 61.7339 16.0567 61.1643 16.2941C60.5946 16.5361 60.126 16.8637 59.7264 17.2956C59.3267 17.7275 59.0235 18.2449 58.8214 18.8477C58.6193 19.4363 58.5044 20.0913 58.5044 20.7986C58.5044 21.5058 58.6239 22.1608 58.8214 22.7494C59.0235 23.3522 59.3221 23.8696 59.7264 24.3015C60.126 24.7145 60.5946 25.061 61.1643 25.3031C61.7339 25.5451 62.3495 25.6638 63.0523 25.6638C63.7552 25.6638 64.4075 25.5404 64.9725 25.3031C65.5422 25.061 66.0108 24.7145 66.3921 24.3015C66.778 23.8696 67.0766 23.3522 67.2925 22.7494C67.4946 22.1608 67.5911 21.5058 67.5911 20.7986C67.5911 20.0913 67.49 19.4363 67.2925 18.8477C67.0766 18.2449 66.7734 17.7275 66.3921 17.2956Z" fill="white"/>
<path d="M69.7503 19.6787C69.7319 20.4904 69.6998 21.1454 69.6492 21.6628C69.5803 22.1802 69.516 22.5789 69.415 22.8732C69.3139 23.1675 69.199 23.3573 69.0658 23.4618C68.9326 23.5804 68.781 23.6326 68.5972 23.6326C68.4319 23.6326 68.2941 23.6136 68.1792 23.5994C68.0644 23.5662 67.9633 23.5282 67.8806 23.495V25.498C68.0138 25.5502 68.1654 25.6025 68.3629 25.6357C68.5651 25.6547 68.781 25.6689 69.0474 25.6689C69.5987 25.6689 70.0673 25.5455 70.4164 25.3082C70.7656 25.0471 71.0504 24.6864 71.2709 24.2022C71.473 23.7181 71.62 23.1152 71.7211 22.389C71.8038 21.6628 71.8727 20.8179 71.9049 19.8496L71.937 18.1408H74.6795V25.3936H76.9673V16.209H69.8146L69.7457 19.6787H69.7503Z" fill="white"/>
<path d="M87.3578 16.2075H84.2844L80.9585 19.6963V16.2075H78.6523V25.3921H80.9585V22.492L81.8956 21.5047L84.5003 25.3921H87.5093L83.6827 20.0238L87.3578 16.2075Z" fill="white"/>
<path d="M93.6656 21.8523C93.5967 22.1988 93.4818 22.4931 93.3164 22.7494C93.1511 23.0105 92.9305 23.2335 92.6641 23.3902C92.3976 23.5468 92.0439 23.6323 91.6259 23.6323C91.2078 23.6323 90.8909 23.5468 90.6244 23.3902C90.358 23.2335 90.1421 23.0105 89.9721 22.7352C89.7883 22.4741 89.6689 22.1656 89.6046 21.8191C89.5356 21.4916 89.4897 21.1451 89.4897 20.7986C89.4897 20.4521 89.5402 20.1056 89.6046 19.7638C89.6735 19.4173 89.7883 19.123 89.9721 18.8477C90.1375 18.5867 90.358 18.3636 90.6244 18.2069C90.8909 18.0503 91.2262 17.9649 91.6259 17.9649C92.0255 17.9649 92.393 18.0361 92.6641 18.188C92.9305 18.3588 93.1465 18.5677 93.3164 18.8287C93.4818 19.0851 93.6013 19.3983 93.6656 19.7448C93.7345 20.0913 93.7666 20.4378 93.7666 20.7986C93.7666 21.1593 93.7345 21.5058 93.6656 21.8523ZM94.9702 17.2956C94.5843 16.8637 94.1158 16.5361 93.5507 16.2941C92.9811 16.052 92.3471 15.9333 91.6305 15.9333C90.9138 15.9333 90.312 16.0567 89.7424 16.2941C89.1727 16.5361 88.7042 16.8637 88.3045 17.2956C87.9048 17.7275 87.6017 18.2449 87.3995 18.8477C87.1974 19.4363 87.0825 20.0913 87.0825 20.7986C87.0825 21.5058 87.1974 22.1608 87.3995 22.7494C87.6017 23.3522 87.9002 23.8696 88.3045 24.3015C88.7042 24.7145 89.1727 25.061 89.7424 25.3031C90.312 25.5451 90.9276 25.6638 91.6305 25.6638C92.3333 25.6638 92.9857 25.5404 93.5507 25.3031C94.1204 25.061 94.5889 24.7145 94.9702 24.3015C95.3561 23.8696 95.6547 23.3522 95.8706 22.7494C96.0727 22.1608 96.1692 21.5058 96.1692 20.7986C96.1692 20.0913 96.0681 19.4363 95.8706 18.8477C95.6547 18.2449 95.3515 17.7275 94.9702 17.2956Z" fill="white"/>
<path d="M102.836 22.9396C102.803 23.0773 102.721 23.2007 102.62 23.3004C102.505 23.4238 102.353 23.5092 102.151 23.5946C101.949 23.6658 101.669 23.6991 101.333 23.6991H99.5601V21.4017H101.333C101.618 21.4017 101.852 21.4207 102.05 21.454C102.252 21.4872 102.417 21.5394 102.537 21.6438C102.67 21.7292 102.753 21.8526 102.803 21.9903C102.868 22.1469 102.886 22.3368 102.886 22.5599C102.886 22.6833 102.868 22.802 102.836 22.9396ZM99.5601 17.8988H101.398C101.646 17.8988 101.848 17.9178 102.018 17.97C102.183 18.0222 102.321 18.0886 102.404 18.1598C102.505 18.2453 102.587 18.3497 102.62 18.4541C102.67 18.5728 102.689 18.6962 102.689 18.8338C102.689 18.9905 102.67 19.1424 102.62 19.2658C102.587 19.3892 102.505 19.4889 102.404 19.5601C102.303 19.6455 102.169 19.6977 102.004 19.7499C101.82 19.7832 101.604 19.8211 101.338 19.8211H99.5647V17.9035L99.5601 17.8988ZM103.924 20.4714C104.076 20.4002 104.191 20.3148 104.324 20.2103C104.443 20.1249 104.558 20.0015 104.659 19.8496C104.76 19.712 104.843 19.5411 104.894 19.3322C104.958 19.1424 104.976 18.9003 104.976 18.625C104.976 18.1408 104.894 17.7421 104.724 17.4336C104.558 17.1251 104.324 16.883 104.039 16.6931C103.741 16.5223 103.405 16.3989 103.038 16.3134C102.652 16.2422 102.27 16.209 101.852 16.209H97.2585V25.3936H102.238C102.707 25.3936 103.125 25.3224 103.506 25.1848C103.892 25.0471 104.209 24.8572 104.476 24.5962C104.742 24.3541 104.944 24.0456 105.096 23.6991C105.229 23.3526 105.298 22.9586 105.298 22.5267C105.298 22.0235 105.178 21.6106 104.949 21.2498C104.714 20.8891 104.379 20.6281 103.929 20.4714" fill="white"/>
<path d="M112.496 21.8525C112.427 22.199 112.312 22.4933 112.147 22.7497C111.981 23.0107 111.761 23.2338 111.494 23.3904C111.228 23.5471 110.874 23.6325 110.456 23.6325C110.038 23.6325 109.721 23.5471 109.455 23.3904C109.188 23.2338 108.972 23.0107 108.802 22.7354C108.619 22.4791 108.499 22.1658 108.435 21.8193C108.366 21.4918 108.315 21.1453 108.315 20.7988C108.315 20.4523 108.366 20.1058 108.435 19.764C108.504 19.4175 108.619 19.1233 108.802 18.848C108.968 18.5869 109.188 18.3638 109.455 18.2072C109.721 18.0506 110.057 17.9651 110.456 17.9651C110.856 17.9651 111.223 18.0363 111.494 18.1882C111.761 18.3591 111.981 18.5679 112.147 18.829C112.312 19.0853 112.432 19.3986 112.496 19.7451C112.565 20.0916 112.597 20.4333 112.597 20.7988C112.597 21.1643 112.565 21.506 112.496 21.8525ZM114.701 18.848C114.485 18.2451 114.182 17.7278 113.796 17.2959C113.41 16.8639 112.946 16.5364 112.376 16.2943C111.807 16.0522 111.173 15.9336 110.456 15.9336C109.74 15.9336 109.138 16.057 108.568 16.2943C107.998 16.5364 107.53 16.8639 107.13 17.2959C106.731 17.7278 106.427 18.2451 106.23 18.848C106.028 19.4365 105.913 20.0916 105.913 20.7988C105.913 21.5061 106.032 22.1611 106.23 22.7497C106.432 23.3525 106.731 23.8699 107.13 24.3018C107.53 24.7147 107.998 25.0612 108.568 25.3033C109.138 25.5454 109.753 25.6641 110.456 25.6641C111.159 25.6641 111.811 25.5406 112.376 25.3033C112.946 25.0612 113.415 24.7147 113.796 24.3018C114.182 23.8699 114.48 23.3525 114.701 22.7497C114.903 22.1611 115 21.5061 115 20.7988C115 20.0916 114.898 19.4365 114.701 18.848Z" fill="white"/>
</g>
<defs>
<clipPath id="clip0_360_968">
<rect width="114.475" height="33.2661" fill="white" transform="translate(0.525391 0.366943)"/>
</clipPath>
</defs>
</svg>
