<svg width="141" height="36" viewBox="0 0 141 36" fill="none" xmlns="http://www.w3.org/2000/svg">
<path d="M1 0.5V35.5" stroke="white"/>
<g clip-path="url(#clip0_301_195)">
<path d="M49.0233 0.0532227H22.0046C17.0323 0.0532227 13 4.08547 13 9.05774V27.072C13 32.0442 17.0323 36.0765 22.0046 36.0765H40.0187C44.991 36.0765 49.0233 32.0442 49.0233 27.072V0.0532227ZM47.8418 1.23464V27.072C47.8418 31.3867 44.3335 34.8951 40.0187 34.8951H22.0046C17.6898 34.8951 14.1814 31.3867 14.1814 27.072V9.05774C14.1814 4.74296 17.6898 1.23464 22.0046 1.23464H47.8418Z" fill="white"/>
<path d="M30.9886 17.6256C28.5949 15.6583 23.4069 16.8911 22.847 14.4409C22.5542 13.1516 23.8384 12.0113 25.5026 12.0113C27.0025 12.0113 28.5024 12.3452 29.0726 14.4358H30.9938V17.6256H30.9886ZM42.7669 13.5625H38.4419L34.3274 18.0674V9.06283H30.9886V11.2459C30.8807 11.1072 30.7626 10.9634 30.6342 10.8298C29.4219 9.54567 27.6703 8.89331 25.4359 8.89331C22.847 8.89331 21.3779 10.0491 20.6023 11.0199C19.6366 12.227 19.2051 13.8707 19.503 15.2114C20.2787 18.6837 23.4942 19.2334 25.8622 19.5416C27.7319 19.783 29.5144 20.122 29.4681 21.7863C29.4168 23.5122 27.47 23.9386 26.1909 23.9386C22.8624 23.9386 22.7494 21.4781 22.7494 21.4781H19.1692C19.2206 22.4027 19.5031 23.8872 20.6383 25.1559C21.8865 26.5531 23.751 27.2568 26.1909 27.2568C28.0607 27.2568 29.7661 26.6456 30.9886 25.5669V27.0565H34.3274V22.8085L35.5088 21.514L38.8836 27.0565H42.7669L37.8614 18.9406L42.772 13.5625H42.7669Z" fill="white"/>
<path d="M58.7162 17.3844C58.8858 17.0505 59.1066 16.7679 59.3326 16.5625C59.574 16.357 59.8206 16.1875 60.062 16.0591C60.3035 15.9461 60.55 15.8742 60.7709 15.8177C60.9969 15.7817 61.2023 15.7612 61.3667 15.7612C61.7776 15.7612 62.1167 15.7971 62.4146 15.8742C62.7125 15.9666 62.9745 16.0591 63.18 16.1927C63.406 16.3211 63.5704 16.47 63.7245 16.6241C63.8529 16.7936 63.9864 16.958 64.0789 17.1275C64.1713 17.3124 64.2484 17.4614 64.3049 17.6309L64.4333 18.0778H67.2379C67.2174 17.7799 67.1609 17.4614 67.0684 17.107C66.9554 16.7731 66.827 16.4135 66.6369 16.0591C66.452 15.7252 66.19 15.3862 65.8921 15.0523C65.5942 14.7184 65.2398 14.4359 64.8083 14.174C64.3768 13.912 63.8734 13.7271 63.3135 13.5576C62.7536 13.4086 62.1013 13.3315 61.3719 13.3315C60.8685 13.3315 60.3651 13.3881 59.8566 13.5011C59.3532 13.6295 58.8857 13.8195 58.4337 14.0609C57.9663 14.3024 57.5554 14.6208 57.1804 14.9958C56.79 15.3862 56.4509 15.8177 56.1684 16.3416C55.8911 16.8655 55.6651 17.4614 55.5161 18.1343C55.3466 18.8072 55.2747 19.552 55.2747 20.379C55.2747 21.4423 55.4082 22.4131 55.6856 23.2761C55.9681 24.1544 56.3585 24.8993 56.8824 25.5208C57.4064 26.1166 58.0587 26.6046 58.8241 26.9231C59.5895 27.257 60.4884 27.4265 61.4798 27.4265C62.1886 27.4265 62.8615 27.334 63.4984 27.1286C64.1354 26.9231 64.6953 26.6252 65.1987 26.2143C65.7021 25.8033 66.1336 25.2999 66.488 24.6835C66.8424 24.0671 67.0838 23.3377 67.2379 22.4953H64.4538C64.3973 22.7008 64.3049 22.9627 64.1919 23.2453C64.0994 23.5278 63.9299 23.8052 63.7039 24.0671C63.4779 24.3291 63.18 24.5551 62.805 24.74C62.43 24.9095 61.9626 25.002 61.3667 25.002C60.8633 25.002 60.3959 24.889 60.0004 24.6835C59.5895 24.478 59.235 24.1801 58.9525 23.7846C58.67 23.3942 58.4491 22.9063 58.3001 22.3258C58.1512 21.7454 58.0742 21.1135 58.0742 20.3841C58.0742 19.7112 58.1306 19.1308 58.2437 18.648C58.3567 18.16 58.5056 17.749 58.7111 17.3946" fill="white"/>
<path d="M78.1377 17.1431H74.7013L70.9824 20.9185V17.1431H68.4038V27.0825H70.9824V23.944L72.0251 22.8756L74.9427 27.0825H78.3073L74.0284 21.2729L78.1377 17.1431Z" fill="white"/>
<path d="M85.1904 23.2506C85.1133 23.6256 84.985 23.944 84.8001 24.2214C84.6151 24.5039 84.3685 24.7454 84.0706 24.9149C83.7727 25.0844 83.3772 25.1768 82.9097 25.1768C82.4423 25.1768 82.0878 25.0844 81.7899 24.9149C81.492 24.7454 81.2506 24.5039 81.0606 24.206C80.8551 23.9235 80.7215 23.5896 80.6496 23.2146C80.5726 22.8602 80.5212 22.4852 80.5212 22.1103C80.5212 21.7353 80.5777 21.3603 80.6496 20.9905C80.7267 20.6155 80.8551 20.297 81.0606 19.9991C81.2455 19.7166 81.492 19.4752 81.7899 19.3057C82.0878 19.1361 82.4629 19.0437 82.9097 19.0437C83.3566 19.0437 83.7676 19.1207 84.0706 19.2851C84.3685 19.47 84.61 19.696 84.8001 19.9786C84.985 20.2559 85.1185 20.5949 85.1904 20.9699C85.2674 21.3449 85.3034 21.7199 85.3034 22.1103C85.3034 22.5007 85.2674 22.8756 85.1904 23.2506ZM86.6492 18.3194C86.2178 17.852 85.6938 17.4975 85.062 17.2356C84.425 16.9736 83.7162 16.8452 82.9149 16.8452C82.1136 16.8452 81.4407 16.9787 80.8037 17.2356C80.1668 17.4975 79.6428 17.852 79.196 18.3194C78.7491 18.7869 78.4101 19.3467 78.1841 19.9991C77.958 20.636 77.8296 21.3449 77.8296 22.1103C77.8296 22.8756 77.9632 23.5845 78.1841 24.2214C78.4101 24.8738 78.7439 25.4337 79.196 25.9011C79.6428 26.348 80.1668 26.723 80.8037 26.9849C81.4407 27.2469 82.129 27.3753 82.9149 27.3753C83.7008 27.3753 84.4302 27.2418 85.062 26.9849C85.6989 26.723 86.2229 26.348 86.6492 25.9011C87.0807 25.4337 87.4146 24.8738 87.656 24.2214C87.882 23.5845 87.9899 22.8756 87.9899 22.1103C87.9899 21.3449 87.8769 20.636 87.656 19.9991C87.4146 19.3467 87.0756 18.7869 86.6492 18.3194Z" fill="white"/>
<path d="M90.4041 20.898C90.3835 21.7763 90.3476 22.4852 90.2911 23.0451C90.214 23.605 90.1421 24.0365 90.0291 24.3549C89.9161 24.6734 89.7877 24.8789 89.6387 24.9919C89.4897 25.1203 89.3202 25.1768 89.1148 25.1768C88.9298 25.1768 88.7758 25.1562 88.6474 25.1408C88.519 25.1049 88.4059 25.0638 88.3135 25.0278V27.1955C88.4624 27.252 88.6319 27.3085 88.8528 27.3445C89.0788 27.365 89.3202 27.3804 89.6181 27.3804C90.2345 27.3804 90.7585 27.2469 91.1489 26.99C91.5393 26.7075 91.8578 26.3171 92.1043 25.7932C92.3303 25.2693 92.4947 24.6169 92.6077 23.831C92.7002 23.0451 92.7772 22.1308 92.8132 21.0829L92.8491 19.2337H95.9157V27.0825H98.4738V17.1431H90.476L90.3989 20.898H90.4041Z" fill="white"/>
<path d="M110.093 17.1431H106.656L102.937 20.9185V17.1431H100.359V27.0825H102.937V23.944L103.985 22.8756L106.898 27.0825H110.262L105.983 21.2729L110.093 17.1431Z" fill="white"/>
<path d="M117.146 23.2506C117.068 23.6256 116.94 23.944 116.755 24.2214C116.57 24.5039 116.324 24.7454 116.026 24.9149C115.728 25.0844 115.332 25.1768 114.865 25.1768C114.397 25.1768 114.043 25.0844 113.745 24.9149C113.447 24.7454 113.206 24.5039 113.016 24.206C112.81 23.9235 112.677 23.5896 112.605 23.2146C112.528 22.8602 112.476 22.4852 112.476 22.1103C112.476 21.7353 112.533 21.3603 112.605 20.9905C112.682 20.6155 112.81 20.297 113.016 19.9991C113.201 19.7166 113.447 19.4752 113.745 19.3057C114.043 19.1361 114.418 19.0437 114.865 19.0437C115.312 19.0437 115.723 19.1207 116.026 19.2851C116.324 19.47 116.565 19.696 116.755 19.9786C116.94 20.2559 117.074 20.5949 117.146 20.9699C117.223 21.3449 117.259 21.7199 117.259 22.1103C117.259 22.5007 117.223 22.8756 117.146 23.2506ZM118.604 18.3194C118.173 17.852 117.649 17.4975 117.017 17.2356C116.38 16.9736 115.671 16.8452 114.87 16.8452C114.069 16.8452 113.396 16.9787 112.759 17.2356C112.122 17.4975 111.598 17.852 111.151 18.3194C110.704 18.7869 110.365 19.3467 110.139 19.9991C109.913 20.636 109.785 21.3449 109.785 22.1103C109.785 22.8756 109.913 23.5845 110.139 24.2214C110.365 24.8738 110.699 25.4337 111.151 25.9011C111.598 26.348 112.122 26.723 112.759 26.9849C113.396 27.2469 114.084 27.3753 114.87 27.3753C115.656 27.3753 116.385 27.2418 117.017 26.9849C117.654 26.723 118.178 26.348 118.604 25.9011C119.036 25.4337 119.37 24.8738 119.611 24.2214C119.837 23.5845 119.945 22.8756 119.945 22.1103C119.945 21.3449 119.832 20.636 119.611 19.9991C119.37 19.3467 119.031 18.7869 118.604 18.3194Z" fill="white"/>
<path d="M127.398 24.4268C127.362 24.5758 127.27 24.7093 127.157 24.8172C127.028 24.9508 126.859 25.0432 126.633 25.1357C126.407 25.2127 126.094 25.2487 125.719 25.2487H123.736V22.7626H125.719C126.037 22.7626 126.299 22.7831 126.52 22.8191C126.746 22.855 126.931 22.9115 127.064 23.0245C127.213 23.117 127.306 23.2505 127.362 23.3995C127.434 23.569 127.455 23.7745 127.455 24.0159C127.455 24.1495 127.434 24.2779 127.398 24.4268ZM123.736 18.9717H125.79C126.068 18.9717 126.294 18.9923 126.484 19.0488C126.669 19.1053 126.823 19.1772 126.915 19.2543C127.028 19.3467 127.121 19.4597 127.157 19.5727C127.213 19.7011 127.234 19.8347 127.234 19.9836C127.234 20.1532 127.213 20.3175 127.157 20.4511C127.121 20.5846 127.028 20.6925 126.915 20.7695C126.802 20.862 126.653 20.9185 126.469 20.975C126.263 21.011 126.022 21.0521 125.724 21.0521H123.741V18.9769L123.736 18.9717ZM128.616 21.7558C128.785 21.6787 128.914 21.5863 129.063 21.4733C129.196 21.3808 129.324 21.2473 129.437 21.0829C129.55 20.9339 129.643 20.749 129.699 20.523C129.771 20.3175 129.792 20.0556 129.792 19.7576C129.792 19.2337 129.699 18.8022 129.509 18.4683C129.324 18.1344 129.063 17.8725 128.744 17.667C128.41 17.4821 128.035 17.3485 127.624 17.2561C127.193 17.179 126.766 17.1431 126.299 17.1431H121.162V27.0825H126.73C127.254 27.0825 127.722 27.0054 128.148 26.8565C128.58 26.7075 128.934 26.5021 129.232 26.2195C129.53 25.9576 129.756 25.6237 129.925 25.2487C130.074 24.8737 130.151 24.4474 130.151 23.9799C130.151 23.4355 130.018 22.9886 129.761 22.5982C129.499 22.2078 129.124 21.9253 128.621 21.7558" fill="white"/>
<path d="M138.2 23.2506C138.123 23.6256 137.995 23.944 137.81 24.2214C137.625 24.5039 137.379 24.7454 137.081 24.9149C136.783 25.0844 136.387 25.1768 135.92 25.1768C135.452 25.1768 135.098 25.0844 134.8 24.9149C134.502 24.7454 134.261 24.5039 134.071 24.206C133.865 23.9286 133.732 23.5896 133.66 23.2146C133.583 22.8602 133.526 22.4852 133.526 22.1103C133.526 21.7353 133.583 21.3603 133.66 20.9905C133.737 20.6155 133.865 20.297 134.071 19.9991C134.255 19.7166 134.502 19.4752 134.8 19.3057C135.098 19.1361 135.473 19.0437 135.92 19.0437C136.367 19.0437 136.778 19.1207 137.081 19.2851C137.379 19.47 137.625 19.696 137.81 19.9786C137.995 20.2559 138.129 20.5949 138.2 20.9699C138.277 21.3449 138.313 21.7148 138.313 22.1103C138.313 22.5058 138.277 22.8756 138.2 23.2506ZM140.666 19.9991C140.425 19.3467 140.086 18.7869 139.654 18.3194C139.223 17.852 138.704 17.4975 138.067 17.2356C137.43 16.9736 136.721 16.8452 135.92 16.8452C135.118 16.8452 134.446 16.9787 133.809 17.2356C133.172 17.4975 132.648 17.852 132.201 18.3194C131.754 18.7869 131.415 19.3467 131.194 19.9991C130.968 20.636 130.84 21.3449 130.84 22.1103C130.84 22.8756 130.973 23.5845 131.194 24.2214C131.42 24.8738 131.754 25.4337 132.201 25.9011C132.648 26.348 133.172 26.723 133.809 26.9849C134.446 27.2469 135.134 27.3753 135.92 27.3753C136.706 27.3753 137.435 27.2418 138.067 26.9849C138.704 26.723 139.228 26.348 139.654 25.9011C140.086 25.4337 140.419 24.8738 140.666 24.2214C140.892 23.5845 141 22.8756 141 22.1103C141 21.3449 140.887 20.636 140.666 19.9991Z" fill="white"/>
</g>
<defs>
<clipPath id="clip0_301_195">
<rect width="128" height="36" fill="white" transform="translate(13)"/>
</clipPath>
</defs>
</svg>
