<svg width="121" height="120" viewBox="0 0 121 120" fill="none" xmlns="http://www.w3.org/2000/svg">
<g clip-path="url(#clip0_232_593)">
<path d="M69.0504 0.26012L75.3658 22.3511L95.539 11.3538L90.8648 33.8494L113.838 33.4867L99.245 51.2333L119.755 61.5883L98.5866 70.5205L111.935 89.221L89.0404 87.2924L92.1696 110.054L72.7934 97.7069L64.9861 119.316L53.5674 99.3781L36.6123 114.884L35.7671 91.9232L13.5483 97.7732L23.4702 77.0499L1.07776 71.9042L19.4937 58.1656L2.05754 43.2031L24.7487 39.5964L16.2632 18.2448L38.0313 25.5964L40.4404 2.74702L56.2986 19.3727L69.0504 0.26012Z" fill="#FF7D25"/>
<g clip-path="url(#clip1_232_593)">
<ellipse cx="55.0317" cy="54.7827" rx="3.47826" ry="6.95652" fill="white"/>
<ellipse cx="65.4663" cy="54.7827" rx="3.47826" ry="6.95652" fill="white"/>
<path d="M47.2054 64.8521C49.1747 70.1434 54.2716 73.9127 60.2489 73.9127C66.2262 73.9127 71.3231 70.1434 73.2924 64.8521M47.2054 64.8521L45.9011 65.2172M47.2054 64.8521L48.5098 64.3477M73.2924 64.8521L71.988 64.3477M73.2924 64.8521L74.5967 65.2172" stroke="white"/>
<circle cx="60.2487" cy="60" r="19.5" stroke="white"/>
</g>
</g>
<defs>
<clipPath id="clip0_232_593">
<rect width="120" height="120" fill="white" transform="translate(0.248749)"/>
</clipPath>
<clipPath id="clip1_232_593">
<rect width="40" height="40" fill="white" transform="translate(40.2487 40)"/>
</clipPath>
</defs>
</svg>
