<svg width="334" height="186" viewBox="0 0 334 186" fill="none" xmlns="http://www.w3.org/2000/svg">
<path d="M312.639 141.384L317.166 155.561L317.235 155.779L317.445 155.869L332.367 162.25L316.537 165.826L316.314 165.876L316.206 166.078L309.188 179.201L304.661 165.024L304.591 164.806L304.381 164.716L289.459 158.334L305.29 154.759L305.513 154.709L305.62 154.507L312.639 141.384Z" stroke="white"/>
<path d="M13.8194 1.52543L15.8992 9.23803L15.9591 9.46001L16.1665 9.55906L23.3752 13.0006L15.6626 15.0804L15.4407 15.1403L15.3416 15.3478L11.9 22.5565L9.82023 14.8439L9.76037 14.6219L9.55289 14.5229L2.34419 11.0813L10.0568 9.00147L10.2788 8.94161L10.3778 8.73413L13.8194 1.52543Z" stroke="white"/>
</svg>
