<svg width="25" height="26" viewBox="0 0 25 26" fill="none" xmlns="http://www.w3.org/2000/svg">
<path fill-rule="evenodd" clip-rule="evenodd" d="M5.7169 15.7531C6.64201 14.638 7.6127 13.6609 8.56296 12.8599C7.56882 12.2885 6.53564 11.5808 5.51693 10.7548C1.51852 7.51265 -0.742804 3.67574 0.466126 2.18481C1.67506 0.693875 5.89644 2.1135 9.89486 5.35563C10.8336 6.11678 11.6765 6.91072 12.4013 7.69938C12.895 6.93328 13.4659 6.15261 14.1059 5.38116C17.3925 1.41925 21.2545 -0.799042 22.7318 0.426481C24.2091 1.652 22.7424 5.85725 19.4557 9.81917C18.575 10.8808 17.653 11.8173 16.7467 12.5958C17.6748 13.1556 18.6327 13.8337 19.577 14.6149C23.5433 17.8963 25.7667 21.7553 24.5431 23.2343C23.3195 24.7132 19.1123 23.2521 15.1461 19.9707C14.2857 19.2588 13.5074 18.5199 12.8284 17.7839C12.3219 18.5785 11.7315 19.3898 11.0668 20.1912C7.78015 24.1531 3.9182 26.3714 2.44087 25.1458C0.963546 23.9203 2.43028 19.7151 5.7169 15.7531Z" fill="#7E3CF5"/>
</svg>
