<svg width="279" height="127" viewBox="0 0 279 127" fill="none" xmlns="http://www.w3.org/2000/svg">
<path d="M1 117.104L0.706057 116.699L0.15204 117.102L0.704295 117.507L1 117.104ZM31.3253 117.976L31.3206 118.476L31.3253 117.976ZM49.1065 117.104L49.0673 116.605L49.1065 117.104ZM96.7112 110.288L96.8135 110.778L96.7112 110.288ZM137.166 95.1507L137.429 95.5757L137.166 95.1507ZM154.1 80.1719L153.637 79.985L154.1 80.1719ZM151.56 66.7782L151.291 67.1998L151.56 66.7782ZM86.7858 83.3817L86.3517 83.1336L86.7858 83.3817ZM94.4063 115.083L94.6296 114.636L94.4063 115.083ZM156.217 121.859L156.157 121.363L156.217 121.859ZM243.9 101.214L243.704 100.754L243.9 101.214ZM189.869 0.502591L189.372 0.451755L189.27 1.44657L189.768 1.49741L189.869 0.502591ZM13.4236 108.693L13.8281 108.399L13.2402 107.59L12.8357 107.884L13.4236 108.693ZM12.834 126.403L13.2371 126.699L13.8286 125.893L13.4254 125.597L12.834 126.403ZM1 117.104C0.981925 117.604 0.982011 117.604 0.98218 117.604C0.982347 117.604 0.9826 117.604 0.982935 117.604C0.983604 117.604 0.984605 117.604 0.985937 117.604C0.988599 117.604 0.992581 117.604 0.997865 117.604C1.00843 117.604 1.02421 117.605 1.04507 117.606C1.08678 117.607 1.14879 117.61 1.23002 117.612C1.39249 117.618 1.63185 117.627 1.93948 117.638C2.55472 117.66 3.44301 117.691 4.5353 117.729C6.71985 117.804 9.72048 117.906 12.9847 118.01C19.511 118.217 27.098 118.436 31.3206 118.476L31.33 117.476C27.1206 117.436 19.5449 117.218 13.0166 117.01C9.75347 116.906 6.75378 116.805 4.56984 116.729C3.47789 116.691 2.58989 116.66 1.97491 116.638C1.66742 116.627 1.42819 116.619 1.26584 116.613C1.18466 116.61 1.12271 116.608 1.08105 116.606C1.06023 116.606 1.04448 116.605 1.03394 116.605C1.02866 116.605 1.0247 116.604 1.02205 116.604C1.02072 116.604 1.01973 116.604 1.01907 116.604C1.01873 116.604 1.01849 116.604 1.01832 116.604C1.01816 116.604 1.01808 116.604 1 117.104ZM31.3206 118.476C37.3074 118.532 43.2187 118.069 49.1458 117.602L49.0673 116.605C43.1335 117.073 37.2657 117.532 31.33 117.476L31.3206 118.476ZM49.1458 117.602C65.3438 116.327 81.014 114.079 96.8135 110.778L96.609 109.799C80.8511 113.092 65.2229 115.333 49.0673 116.605L49.1458 117.602ZM96.8135 110.778C110.994 107.814 125.549 102.943 137.429 95.5757L136.902 94.7258C125.154 102.011 110.721 106.85 96.609 109.799L96.8135 110.778ZM137.429 95.5757C140.536 93.6494 144.141 91.5241 147.291 89.0609C150.441 86.5985 153.195 83.7555 154.564 80.3589L153.637 79.985C152.364 83.1408 149.772 85.8518 146.675 88.2731C143.58 90.6935 140.038 92.7814 136.902 94.7258L137.429 95.5757ZM154.564 80.3589C155.579 77.8411 156.351 75.2702 156.136 72.8586C155.916 70.4035 154.681 68.1744 151.829 66.3565L151.291 67.1998C153.906 68.8667 154.95 70.8295 155.14 72.9475C155.333 75.1091 154.641 77.4926 153.637 79.985L154.564 80.3589ZM151.829 66.3565C145.682 62.4377 137.798 61.1267 130.392 61.1267V62.1267C137.706 62.1267 145.372 63.4259 151.291 67.1998L151.829 66.3565ZM130.392 61.1267C121.872 61.1267 112.769 63.3083 104.85 67.1396C96.9351 70.969 90.1618 76.4674 86.3517 83.1336L87.2198 83.6298C90.9002 77.1907 97.4898 71.8116 105.285 68.0398C113.077 64.27 122.032 62.1267 130.392 62.1267V61.1267ZM86.3517 83.1336C83.4688 88.1773 82.303 94.6995 83.41 100.744C84.519 106.799 87.9171 112.402 94.1829 115.53L94.6296 114.636C88.6926 111.672 85.4563 106.366 84.3937 100.564C83.329 94.7507 84.4544 88.4682 87.2198 83.6298L86.3517 83.1336ZM94.1829 115.53C113.291 125.069 135.183 124.894 156.277 122.355L156.157 121.363C135.111 123.895 113.465 124.038 94.6296 114.636L94.1829 115.53ZM156.277 122.355C186.627 118.703 216.657 113.355 244.096 101.674L243.704 100.754C216.398 112.379 186.481 117.713 156.157 121.363L156.277 122.355ZM244.096 101.674C268.949 91.0927 283.159 68.6393 277.115 47.2949C271.076 25.9664 244.911 6.12802 189.869 0.502591L189.768 1.49741C244.701 7.11177 270.29 26.8593 276.153 47.5673C282.013 68.2593 268.276 90.2928 243.704 100.754L244.096 101.674ZM1.29394 117.508L13.4236 108.693L12.8357 107.884L0.706057 116.699L1.29394 117.508ZM0.704295 117.507L12.834 126.403L13.4254 125.597L1.29571 116.701L0.704295 117.507Z" fill="#FF7D25"/>
</svg>
