<svg width="406" height="584" viewBox="0 0 406 584" fill="none" xmlns="http://www.w3.org/2000/svg">
<path d="M21.5852 18.7874L25.7443 31.6595L39.6213 37.5486L24.9075 40.8284L18.487 52.735L14.3279 39.8629L0.450923 33.9738L15.1647 30.694L21.5852 18.7874Z" fill="#B1EC52"/>
<path fill-rule="evenodd" clip-rule="evenodd" d="M371.188 30.9806C372.508 28.8944 373.935 27.0318 375.366 25.4711C373.562 24.7224 371.662 23.752 369.76 22.5785C362.297 17.9726 357.639 11.9827 359.356 9.19977C361.074 6.41683 368.516 7.89466 375.98 12.5006C377.732 13.5819 379.329 14.7395 380.726 15.914C381.393 14.5119 382.187 13.0682 383.1 11.6251C387.79 4.21372 393.831 -0.376971 396.595 1.3715C399.358 3.11997 397.797 10.5455 393.108 17.9569C391.852 19.9429 390.498 21.7263 389.136 23.2396C390.827 23.9829 392.593 24.9197 394.359 26.0338C401.777 30.7131 406.376 36.7486 404.631 39.5144C402.886 42.2803 395.458 40.7292 388.041 36.0499C386.432 35.0348 384.955 33.956 383.648 32.8605C382.965 34.3136 382.145 35.8133 381.196 37.3124C376.507 44.7237 370.465 49.3144 367.702 47.566C364.938 45.8175 366.499 38.392 371.188 30.9806Z" fill="#B1EC52"/>
<mask id="path-3-inside-1_401_207" fill="white">
<path fill-rule="evenodd" clip-rule="evenodd" d="M79.7893 557.161C81.2174 553.628 82.8699 550.405 84.6118 547.64C81.6648 547.002 78.5113 546.053 75.2997 544.796C62.6941 539.863 53.9664 532.054 55.8058 527.353C57.6452 522.653 69.3552 522.841 81.9608 527.774C84.9202 528.933 87.6659 530.249 90.1113 531.647C90.7369 529.333 91.5445 526.922 92.5324 524.478C97.606 511.929 105.512 503.289 110.192 505.18C114.872 507.072 114.552 518.779 109.479 531.329C108.119 534.692 106.556 537.774 104.906 540.448C107.678 541.11 110.62 542.045 113.609 543.249C126.166 548.306 134.816 556.201 132.93 560.883C131.045 565.565 119.337 565.261 106.781 560.204C104.057 559.107 101.517 557.876 99.2285 556.574C98.5933 558.969 97.7616 561.473 96.7354 564.012C91.6618 576.561 83.7553 585.201 79.0758 583.309C74.3963 581.417 74.7157 569.71 79.7893 557.161Z"/>
</mask>
<path d="M84.6118 547.64L85.4579 548.173L86.2188 546.965L84.8235 546.663L84.6118 547.64ZM79.7893 557.161L78.8622 556.786L79.7893 557.161ZM75.2997 544.796L74.9353 545.727L75.2997 544.796ZM55.8058 527.353L54.8745 526.989L54.8745 526.989L55.8058 527.353ZM81.9608 527.774L81.5964 528.706L81.9608 527.774ZM90.1113 531.647L89.615 532.515L90.7387 533.157L91.0766 531.908L90.1113 531.647ZM92.5324 524.478L93.4595 524.853L92.5324 524.478ZM110.192 505.18L109.817 506.108L110.192 505.18ZM109.479 531.329L108.551 530.954L109.479 531.329ZM104.906 540.448L104.055 539.923L103.329 541.1L104.674 541.421L104.906 540.448ZM113.609 543.249L113.983 542.321L113.609 543.249ZM132.93 560.883L132.003 560.509L132.93 560.883ZM106.781 560.204L107.154 559.276L106.781 560.204ZM99.2285 556.574L99.7231 555.705L98.5947 555.063L98.2619 556.318L99.2285 556.574ZM96.7354 564.012L95.8083 563.637L95.8083 563.637L96.7354 564.012ZM79.0758 583.309L79.4506 582.382L79.4506 582.382L79.0758 583.309ZM83.7656 547.107C81.99 549.926 80.311 553.202 78.8622 556.786L80.7164 557.535C82.1238 554.054 83.7498 550.885 85.4579 548.173L83.7656 547.107ZM74.9353 545.727C78.1937 547.002 81.3982 547.967 84.4 548.618L84.8235 546.663C81.9314 546.036 78.8289 545.103 75.6641 543.865L74.9353 545.727ZM54.8745 526.989C54.2722 528.528 54.5825 530.21 55.4139 531.826C56.2461 533.443 57.6533 535.108 59.469 536.733C63.1065 539.987 68.5509 543.229 74.9353 545.727L75.6641 543.865C69.4429 541.43 64.2206 538.301 60.8027 535.242C59.0907 533.71 57.873 532.233 57.1922 530.911C56.5106 529.586 56.4196 528.529 56.737 527.718L54.8745 526.989ZM82.3252 526.843C75.9408 524.345 69.7425 523.03 64.8621 522.952C62.4259 522.912 60.2624 523.18 58.5534 523.803C56.8462 524.425 55.4769 525.45 54.8745 526.989L56.737 527.718C57.0544 526.907 57.8386 526.192 59.2383 525.682C60.6361 525.172 62.5329 524.914 64.8299 524.951C69.4157 525.025 75.3752 526.271 81.5964 528.706L82.3252 526.843ZM90.6075 530.779C88.1179 529.356 85.3279 528.018 82.3252 526.843L81.5964 528.706C84.5125 529.847 87.2139 531.143 89.615 532.515L90.6075 530.779ZM91.6053 524.103C90.6029 526.583 89.7823 529.033 89.1459 531.386L91.0766 531.908C91.6914 529.634 92.4862 527.261 93.4595 524.853L91.6053 524.103ZM110.567 504.253C109.034 503.634 107.349 503.925 105.724 504.739C104.098 505.553 102.417 506.941 100.772 508.739C97.4771 512.34 94.175 517.747 91.6053 524.103L93.4595 524.853C95.9635 518.659 99.1514 513.472 102.248 510.089C103.799 508.394 105.289 507.193 106.62 506.527C107.952 505.86 109.01 505.781 109.817 506.108L110.567 504.253ZM110.406 531.704C112.975 525.348 114.359 519.165 114.492 514.285C114.559 511.85 114.315 509.684 113.711 507.968C113.108 506.254 112.099 504.873 110.567 504.253L109.817 506.108C110.625 506.434 111.33 507.226 111.825 508.631C112.319 510.035 112.556 511.934 112.493 514.231C112.368 518.816 111.055 524.761 108.551 530.954L110.406 531.704ZM105.757 540.973C107.438 538.249 109.026 535.116 110.406 531.704L108.551 530.954C107.212 534.268 105.674 537.3 104.055 539.923L105.757 540.973ZM104.674 541.421C107.396 542.071 110.29 542.99 113.236 544.176L113.983 542.321C110.95 541.1 107.961 540.15 105.139 539.476L104.674 541.421ZM113.236 544.176C119.433 546.672 124.624 549.853 128.011 552.945C129.708 554.494 130.911 555.983 131.579 557.312C132.248 558.644 132.328 559.701 132.003 560.509L133.858 561.256C134.475 559.723 134.182 558.038 133.366 556.415C132.55 554.789 131.159 553.11 129.36 551.468C125.754 548.177 120.342 544.882 113.983 542.321L113.236 544.176ZM132.003 560.509C131.677 561.317 130.886 562.024 129.481 562.52C128.079 563.016 126.179 563.256 123.883 563.196C119.298 563.077 113.351 561.772 107.154 559.276L106.407 561.132C112.767 563.693 118.952 565.069 123.831 565.195C126.267 565.258 128.433 565.012 130.148 564.406C131.861 563.801 133.24 562.79 133.858 561.256L132.003 560.509ZM107.154 559.276C104.47 558.195 101.971 556.984 99.7231 555.705L98.7339 557.443C101.063 558.769 103.643 560.018 106.407 561.132L107.154 559.276ZM97.6625 564.386C98.7038 561.811 99.5489 559.267 100.195 556.83L98.2619 556.318C97.6378 558.671 96.8194 561.136 95.8083 563.637L97.6625 564.386ZM78.701 584.236C80.2333 584.856 81.9185 584.564 83.5434 583.751C85.1701 582.937 86.8507 581.549 88.4956 579.751C91.7908 576.15 95.0929 570.742 97.6625 564.386L95.8083 563.637C93.3043 569.83 90.1164 575.017 87.0201 578.401C85.4692 580.096 83.9787 581.297 82.6482 581.963C81.316 582.629 80.258 582.709 79.4506 582.382L78.701 584.236ZM78.8622 556.786C76.2925 563.142 74.9086 569.325 74.7755 574.204C74.709 576.64 74.9525 578.806 75.5563 580.522C76.1595 582.236 77.1687 583.617 78.701 584.236L79.4506 582.382C78.6432 582.056 77.9375 581.264 77.4429 579.858C76.9491 578.455 76.7121 576.555 76.7747 574.259C76.8998 569.674 78.2124 563.729 80.7164 557.535L78.8622 556.786Z" fill="white" mask="url(#path-3-inside-1_401_207)"/>
</svg>
